G04 #@! TF.FileFunction,Copper,L2,Bot,Signal*
%FSLAX46Y46*%
G04 Gerber Fmt 4.6, Leading zero omitted, Abs format (unit mm)*
G04 Created by KiCad (PCBNEW 4.0.2+e4-6225~38~ubuntu14.04.1-stable) date Mon 09 May 2016 08:18:36 PM EDT*
%MOMM*%
G01*
G04 APERTURE LIST*
%ADD10C,0.100000*%
%ADD11R,2.000000X2.500000*%
%ADD12R,1.250000X1.500000*%
%ADD13R,2.032000X1.727200*%
%ADD14O,2.032000X1.727200*%
%ADD15R,2.032000X2.032000*%
%ADD16O,2.032000X2.032000*%
%ADD17C,1.998980*%
%ADD18R,2.000000X1.700000*%
%ADD19R,1.700000X2.000000*%
%ADD20R,0.650000X1.060000*%
%ADD21R,0.300000X1.600000*%
%ADD22C,1.000760*%
%ADD23C,0.600000*%
%ADD24C,0.500000*%
%ADD25C,0.250000*%
G04 APERTURE END LIST*
D10*
D11*
X177070000Y-103124000D03*
X181070000Y-103124000D03*
D12*
X162052000Y-105176000D03*
X162052000Y-107676000D03*
X164592000Y-105176000D03*
X164592000Y-107676000D03*
D13*
X180594000Y-99314000D03*
D14*
X180594000Y-96774000D03*
X180594000Y-94234000D03*
X180594000Y-91694000D03*
X180594000Y-89154000D03*
X180594000Y-86614000D03*
D15*
X172212000Y-111252000D03*
D16*
X174752000Y-111252000D03*
D15*
X165862000Y-77724000D03*
D16*
X163322000Y-77724000D03*
D17*
X172466000Y-83566000D03*
X164592000Y-83566000D03*
D15*
X173736000Y-77724000D03*
D16*
X171196000Y-77724000D03*
D18*
X181070000Y-106680000D03*
X177070000Y-106680000D03*
D19*
X160528000Y-81312000D03*
X160528000Y-85312000D03*
X168402000Y-81312000D03*
X168402000Y-85312000D03*
D18*
X164306000Y-88900000D03*
X160306000Y-88900000D03*
X164306000Y-93980000D03*
X160306000Y-93980000D03*
X164306000Y-96520000D03*
X160306000Y-96520000D03*
X164306000Y-91440000D03*
X160306000Y-91440000D03*
X172498000Y-94234000D03*
X176498000Y-94234000D03*
X164306000Y-101600000D03*
X160306000Y-101600000D03*
X172498000Y-91694000D03*
X176498000Y-91694000D03*
X164306000Y-99060000D03*
X160306000Y-99060000D03*
D20*
X167706000Y-105326000D03*
X168656000Y-105326000D03*
X169606000Y-105326000D03*
X169606000Y-107526000D03*
X167706000Y-107526000D03*
D21*
X163592000Y-81366000D03*
X164092000Y-81366000D03*
X164592000Y-81366000D03*
X165092000Y-81366000D03*
X165592000Y-81366000D03*
X165592000Y-85766000D03*
X165092000Y-85766000D03*
X164592000Y-85766000D03*
X164092000Y-85766000D03*
X163592000Y-85766000D03*
X171466000Y-81366000D03*
X171966000Y-81366000D03*
X172466000Y-81366000D03*
X172966000Y-81366000D03*
X173466000Y-81366000D03*
X173466000Y-85766000D03*
X172966000Y-85766000D03*
X172466000Y-85766000D03*
X171966000Y-85766000D03*
X171466000Y-85766000D03*
D22*
X164106860Y-112268000D03*
X167109140Y-112268000D03*
D23*
X177292000Y-103156000D03*
X164306000Y-99060000D03*
X163322000Y-107696000D03*
X162052000Y-105176000D03*
X164338000Y-101854000D03*
X164338000Y-88900000D03*
X180848000Y-108458000D03*
X160306000Y-101600000D03*
X176498000Y-91694000D03*
X171704000Y-106172000D03*
X160528000Y-81280000D03*
X163830000Y-79756000D03*
X168402000Y-81312000D03*
X171704000Y-79756000D03*
X160528000Y-88900000D03*
X165608000Y-87630000D03*
X170434000Y-85852000D03*
X160274000Y-93980000D03*
X170434000Y-87630000D03*
X160306000Y-96520000D03*
X166116000Y-86868000D03*
X160306000Y-91440000D03*
X176530000Y-94234000D03*
X160274000Y-99060000D03*
X165100000Y-109982000D03*
D24*
X177292000Y-103156000D02*
X177260000Y-103124000D01*
X177260000Y-103124000D02*
X177070000Y-103124000D01*
X180594000Y-91694000D02*
X181102000Y-91694000D01*
X181102000Y-91694000D02*
X182118000Y-92710000D01*
X182118000Y-92710000D02*
X182118000Y-102076000D01*
X182118000Y-102076000D02*
X181070000Y-103124000D01*
X163322000Y-107696000D02*
X164572000Y-107696000D01*
X164572000Y-107696000D02*
X164592000Y-107676000D01*
X168656000Y-105326000D02*
X168656000Y-104063800D01*
X161016000Y-107676000D02*
X162052000Y-107676000D01*
X160350200Y-107010200D02*
X161016000Y-107676000D01*
X160350200Y-104140000D02*
X160350200Y-107010200D01*
X160985200Y-103505000D02*
X160350200Y-104140000D01*
X168097200Y-103505000D02*
X160985200Y-103505000D01*
X168656000Y-104063800D02*
X168097200Y-103505000D01*
X180594000Y-86614000D02*
X177800000Y-86614000D01*
X174752000Y-83566000D02*
X172466000Y-83566000D01*
X177800000Y-86614000D02*
X174752000Y-83566000D01*
D25*
X160528000Y-85312000D02*
X160814000Y-85312000D01*
X160814000Y-85312000D02*
X162560000Y-83566000D01*
X162560000Y-83566000D02*
X164592000Y-83566000D01*
X168402000Y-85312000D02*
X168402000Y-83566000D01*
X164592000Y-83566000D02*
X168402000Y-83566000D01*
X168402000Y-83566000D02*
X172466000Y-83566000D01*
X165592000Y-81366000D02*
X165592000Y-82566000D01*
X165592000Y-82566000D02*
X164592000Y-83566000D01*
X173466000Y-81366000D02*
X173466000Y-82566000D01*
X173466000Y-82566000D02*
X172466000Y-83566000D01*
X172966000Y-85766000D02*
X172966000Y-84066000D01*
X172966000Y-84066000D02*
X172466000Y-83566000D01*
D24*
X162052000Y-107676000D02*
X163302000Y-107676000D01*
X163302000Y-107676000D02*
X163322000Y-107696000D01*
D25*
X164306000Y-88900000D02*
X164306000Y-91440000D01*
X164306000Y-93980000D02*
X172244000Y-93980000D01*
X172244000Y-93980000D02*
X172498000Y-94234000D01*
D24*
X164306000Y-101600000D02*
X165862000Y-101600000D01*
X165608000Y-96520000D02*
X164306000Y-96520000D01*
X166624000Y-97536000D02*
X165608000Y-96520000D01*
X166624000Y-100838000D02*
X166624000Y-97536000D01*
X165862000Y-101600000D02*
X166624000Y-100838000D01*
X164592000Y-105176000D02*
X162052000Y-105176000D01*
X164338000Y-101854000D02*
X164306000Y-101822000D01*
X164306000Y-101822000D02*
X164306000Y-101600000D01*
X167706000Y-107526000D02*
X166942000Y-107526000D01*
X166942000Y-107526000D02*
X164592000Y-105176000D01*
D25*
X172498000Y-91694000D02*
X172498000Y-94234000D01*
X164338000Y-88900000D02*
X164306000Y-88932000D01*
X164306000Y-88932000D02*
X164306000Y-93980000D01*
X164306000Y-93980000D02*
X164306000Y-96520000D01*
X181070000Y-108236000D02*
X181070000Y-106680000D01*
X180848000Y-108458000D02*
X181070000Y-108236000D01*
X176498000Y-91694000D02*
X178054000Y-91694000D01*
X178054000Y-91694000D02*
X180594000Y-89154000D01*
X164592000Y-81366000D02*
X164592000Y-78994000D01*
X164592000Y-78994000D02*
X165862000Y-77724000D01*
X163592000Y-81366000D02*
X163408000Y-81366000D01*
X162306000Y-78740000D02*
X163322000Y-77724000D01*
X162306000Y-80264000D02*
X162306000Y-78740000D01*
X163408000Y-81366000D02*
X162306000Y-80264000D01*
X172466000Y-81366000D02*
X172466000Y-78994000D01*
X172466000Y-78994000D02*
X173736000Y-77724000D01*
X171466000Y-81366000D02*
X171282000Y-81366000D01*
X170180000Y-78740000D02*
X171196000Y-77724000D01*
X170180000Y-80264000D02*
X170180000Y-78740000D01*
X171282000Y-81366000D02*
X170180000Y-80264000D01*
D24*
X171704000Y-106172000D02*
X172212000Y-106680000D01*
X172212000Y-106680000D02*
X177070000Y-106680000D01*
D25*
X164092000Y-81366000D02*
X164092000Y-80018000D01*
X160528000Y-81280000D02*
X160528000Y-81312000D01*
X164092000Y-80018000D02*
X163830000Y-79756000D01*
X171966000Y-80018000D02*
X171704000Y-79756000D01*
X171966000Y-81366000D02*
X171966000Y-80018000D01*
X172466000Y-85766000D02*
X172466000Y-87630000D01*
X166370000Y-88392000D02*
X165608000Y-87630000D01*
X171704000Y-88392000D02*
X166370000Y-88392000D01*
X172466000Y-87630000D02*
X171704000Y-88392000D01*
X164846000Y-87122000D02*
X165100000Y-87122000D01*
X165100000Y-87122000D02*
X165608000Y-87630000D01*
X160528000Y-88900000D02*
X160306000Y-88900000D01*
X164592000Y-85766000D02*
X164592000Y-87122000D01*
X165092000Y-87114000D02*
X165092000Y-85766000D01*
X165100000Y-87122000D02*
X165092000Y-87114000D01*
X164592000Y-87122000D02*
X164846000Y-87122000D01*
X170520000Y-85766000D02*
X171466000Y-85766000D01*
X170434000Y-85852000D02*
X170520000Y-85766000D01*
X163592000Y-85766000D02*
X163154000Y-85766000D01*
X161798000Y-92488000D02*
X160306000Y-93980000D01*
X161798000Y-87122000D02*
X161798000Y-92488000D01*
X163154000Y-85766000D02*
X161798000Y-87122000D01*
X160274000Y-93980000D02*
X160306000Y-93980000D01*
X171966000Y-87114000D02*
X171966000Y-85766000D01*
X171958000Y-87122000D02*
X171966000Y-87114000D01*
X170942000Y-87122000D02*
X171958000Y-87122000D01*
X170434000Y-87630000D02*
X170942000Y-87122000D01*
X160306000Y-96520000D02*
X160528000Y-96520000D01*
X160528000Y-96520000D02*
X162306000Y-94742000D01*
X164092000Y-87114000D02*
X164092000Y-85766000D01*
X163576000Y-87630000D02*
X164092000Y-87114000D01*
X163068000Y-87630000D02*
X163576000Y-87630000D01*
X162306000Y-88392000D02*
X163068000Y-87630000D01*
X162306000Y-94742000D02*
X162306000Y-88392000D01*
X165592000Y-85766000D02*
X165592000Y-86344000D01*
X165592000Y-86344000D02*
X166116000Y-86868000D01*
X176498000Y-94234000D02*
X175768000Y-94234000D01*
X175768000Y-94234000D02*
X173990000Y-92456000D01*
X173466000Y-87106000D02*
X173466000Y-85766000D01*
X173990000Y-87630000D02*
X173466000Y-87106000D01*
X173990000Y-92456000D02*
X173990000Y-87630000D01*
X176530000Y-94234000D02*
X176498000Y-94234000D01*
X160274000Y-99060000D02*
X160306000Y-99060000D01*
X172966000Y-81366000D02*
X172966000Y-79764000D01*
D24*
X175514000Y-75692000D02*
X168402000Y-75692000D01*
D25*
X175514000Y-78994000D02*
X175514000Y-75692000D01*
X175006000Y-79502000D02*
X175514000Y-78994000D01*
X173228000Y-79502000D02*
X175006000Y-79502000D01*
X172966000Y-79764000D02*
X173228000Y-79502000D01*
X165092000Y-81366000D02*
X165092000Y-79764000D01*
X168402000Y-78740000D02*
X168402000Y-75692000D01*
X167640000Y-79502000D02*
X168402000Y-78740000D01*
X165354000Y-79502000D02*
X167640000Y-79502000D01*
X165092000Y-79764000D02*
X165354000Y-79502000D01*
D24*
X165100000Y-109982000D02*
X159512000Y-109982000D01*
X161544000Y-75692000D02*
X168402000Y-75692000D01*
X158242000Y-78994000D02*
X161544000Y-75692000D01*
X158242000Y-108712000D02*
X158242000Y-78994000D01*
X159512000Y-109982000D02*
X158242000Y-108712000D01*
X167706000Y-105326000D02*
X167706000Y-106238000D01*
X167894000Y-106426000D02*
X168910000Y-106426000D01*
X167706000Y-106238000D02*
X167894000Y-106426000D01*
X169606000Y-106360000D02*
X169606000Y-105326000D01*
X169672000Y-106426000D02*
X169606000Y-106360000D01*
X168910000Y-106426000D02*
X169672000Y-106426000D01*
X168656000Y-106680000D02*
X168910000Y-106426000D01*
X168656000Y-108204000D02*
X168656000Y-106680000D01*
X168148000Y-108712000D02*
X168656000Y-108204000D01*
X166370000Y-108712000D02*
X168148000Y-108712000D01*
X165100000Y-109982000D02*
X166370000Y-108712000D01*
M02*
