G04 #@! TF.FileFunction,Copper,L1,Top,Signal*
%FSLAX46Y46*%
G04 Gerber Fmt 4.6, Leading zero omitted, Abs format (unit mm)*
G04 Created by KiCad (PCBNEW 4.0.2+e4-6225~38~ubuntu14.04.1-stable) date Mon 09 May 2016 08:18:36 PM EDT*
%MOMM*%
G01*
G04 APERTURE LIST*
%ADD10C,0.100000*%
%ADD11R,1.000000X1.000000*%
%ADD12R,1.250000X1.500000*%
%ADD13R,1.500000X1.250000*%
%ADD14R,1.198880X1.198880*%
%ADD15R,2.500000X2.000000*%
%ADD16R,2.032000X1.727200*%
%ADD17O,2.032000X1.727200*%
%ADD18R,2.032000X2.032000*%
%ADD19O,2.032000X2.032000*%
%ADD20C,1.998980*%
%ADD21R,2.000000X1.700000*%
%ADD22R,0.650000X1.060000*%
%ADD23R,1.000760X2.999740*%
%ADD24R,0.701040X1.501140*%
%ADD25C,1.000760*%
%ADD26R,1.700000X2.000000*%
%ADD27C,0.600000*%
%ADD28C,0.500000*%
%ADD29C,0.250000*%
G04 APERTURE END LIST*
D10*
D11*
X162302000Y-101912000D03*
X162302000Y-99912000D03*
X162302000Y-97912000D03*
X162302000Y-95912000D03*
X162302000Y-93912000D03*
X162302000Y-91912000D03*
X162302000Y-89912000D03*
X174502000Y-101912000D03*
X174502000Y-99912000D03*
X174502000Y-97912000D03*
X174502000Y-95912000D03*
X174502000Y-93912000D03*
X174502000Y-91912000D03*
X174502000Y-89912000D03*
D12*
X180594000Y-105898000D03*
X180594000Y-103398000D03*
D13*
X169398000Y-107950000D03*
X166898000Y-107950000D03*
D14*
X180373020Y-109728000D03*
X178274980Y-109728000D03*
D15*
X177292000Y-103156000D03*
X177292000Y-107156000D03*
D16*
X180594000Y-99314000D03*
D17*
X180594000Y-96774000D03*
X180594000Y-94234000D03*
X180594000Y-91694000D03*
X180594000Y-89154000D03*
X180594000Y-86614000D03*
D18*
X172212000Y-111252000D03*
D19*
X174752000Y-111252000D03*
D18*
X165862000Y-77724000D03*
D19*
X163322000Y-77724000D03*
D20*
X172466000Y-83566000D03*
X164592000Y-83566000D03*
D18*
X173736000Y-77724000D03*
D19*
X171196000Y-77724000D03*
D21*
X169894000Y-105156000D03*
X165894000Y-105156000D03*
D22*
X172532000Y-106764000D03*
X173482000Y-106764000D03*
X174432000Y-106764000D03*
X174432000Y-104564000D03*
X172532000Y-104564000D03*
D23*
X161958020Y-112268000D03*
X169257980Y-112268000D03*
D24*
X163357560Y-110048260D03*
X167858440Y-110048260D03*
X166357300Y-110048260D03*
D25*
X164106860Y-112268000D03*
X167109140Y-112268000D03*
D14*
X159486600Y-112707420D03*
X159486600Y-110609380D03*
D26*
X159486600Y-104121200D03*
X159486600Y-108121200D03*
D27*
X177292000Y-103156000D03*
X164306000Y-99060000D03*
X163322000Y-107696000D03*
X162052000Y-105176000D03*
X164338000Y-101854000D03*
X164338000Y-88900000D03*
X180848000Y-108458000D03*
X160306000Y-101600000D03*
X176498000Y-91694000D03*
X171704000Y-106172000D03*
X160528000Y-81280000D03*
X163830000Y-79756000D03*
X168402000Y-81312000D03*
X171704000Y-79756000D03*
X160528000Y-88900000D03*
X165608000Y-87630000D03*
X170434000Y-85852000D03*
X160274000Y-93980000D03*
X170434000Y-87630000D03*
X160306000Y-96520000D03*
X166116000Y-86868000D03*
X160306000Y-91440000D03*
X176530000Y-94234000D03*
X160274000Y-99060000D03*
X165100000Y-109982000D03*
D28*
X174432000Y-104564000D02*
X174700000Y-104564000D01*
X174700000Y-104564000D02*
X177292000Y-107156000D01*
X180594000Y-105898000D02*
X178550000Y-105898000D01*
X178550000Y-105898000D02*
X177292000Y-107156000D01*
D29*
X178274980Y-109728000D02*
X178274980Y-108138980D01*
X178274980Y-108138980D02*
X177292000Y-107156000D01*
X159486600Y-112707420D02*
X160418780Y-112707420D01*
X163322000Y-107721400D02*
X163322000Y-107696000D01*
X160807400Y-110236000D02*
X163322000Y-107721400D01*
X160807400Y-112318800D02*
X160807400Y-110236000D01*
X160418780Y-112707420D02*
X160807400Y-112318800D01*
D28*
X180594000Y-103398000D02*
X180594000Y-103124000D01*
X180594000Y-103124000D02*
X179070000Y-101600000D01*
X179070000Y-101600000D02*
X174814000Y-101600000D01*
X174814000Y-101600000D02*
X174502000Y-101912000D01*
X180594000Y-86614000D02*
X181102000Y-86614000D01*
X181102000Y-86614000D02*
X182118000Y-87630000D01*
X182118000Y-87630000D02*
X182118000Y-101874000D01*
X182118000Y-101874000D02*
X180594000Y-103398000D01*
D29*
X165894000Y-105156000D02*
X165894000Y-100648000D01*
X165894000Y-100648000D02*
X164306000Y-99060000D01*
D28*
X165894000Y-105156000D02*
X165894000Y-104362000D01*
X163322000Y-107696000D02*
X165862000Y-105156000D01*
X165862000Y-105156000D02*
X165894000Y-105156000D01*
X174752000Y-111252000D02*
X181610000Y-111252000D01*
X181864000Y-104668000D02*
X180594000Y-103398000D01*
X181864000Y-110998000D02*
X181864000Y-104668000D01*
X181610000Y-111252000D02*
X181864000Y-110998000D01*
X174502000Y-101912000D02*
X174694000Y-101912000D01*
X174502000Y-101912000D02*
X174440000Y-101912000D01*
X174440000Y-101912000D02*
X173482000Y-102870000D01*
X173482000Y-102870000D02*
X173482000Y-106172000D01*
X173482000Y-106764000D02*
X173482000Y-106172000D01*
X173482000Y-106764000D02*
X173482000Y-107950000D01*
X170942000Y-106680000D02*
X166898000Y-106680000D01*
X171196000Y-106934000D02*
X170942000Y-106680000D01*
X171196000Y-107442000D02*
X171196000Y-106934000D01*
X171958000Y-108204000D02*
X171196000Y-107442000D01*
X173228000Y-108204000D02*
X171958000Y-108204000D01*
X173482000Y-107950000D02*
X173228000Y-108204000D01*
X166898000Y-107950000D02*
X166898000Y-106680000D01*
X166898000Y-106680000D02*
X166898000Y-106160000D01*
X166898000Y-106160000D02*
X165894000Y-105156000D01*
X169398000Y-107950000D02*
X169398000Y-108508700D01*
X169398000Y-108508700D02*
X167858440Y-110048260D01*
X167858440Y-110048260D02*
X171008260Y-110048260D01*
X171008260Y-110048260D02*
X172212000Y-111252000D01*
X172212000Y-111252000D02*
X172212000Y-110490000D01*
X172212000Y-110490000D02*
X174432000Y-108270000D01*
X174432000Y-108270000D02*
X174432000Y-106764000D01*
X166357300Y-110048260D02*
X167858440Y-110048260D01*
X164338000Y-102890000D02*
X164338000Y-101854000D01*
X162052000Y-105176000D02*
X164338000Y-102890000D01*
D29*
X162302000Y-89912000D02*
X163326000Y-89912000D01*
X163326000Y-89912000D02*
X164338000Y-88900000D01*
X180373020Y-109728000D02*
X180373020Y-108932980D01*
X180373020Y-108932980D02*
X180848000Y-108458000D01*
X162302000Y-101912000D02*
X162756000Y-101912000D01*
X162756000Y-101912000D02*
X163322000Y-101346000D01*
X169926000Y-99060000D02*
X180340000Y-99060000D01*
X169164000Y-98298000D02*
X169926000Y-99060000D01*
X163830000Y-98298000D02*
X169164000Y-98298000D01*
X163322000Y-98806000D02*
X163830000Y-98298000D01*
X163322000Y-101346000D02*
X163322000Y-98806000D01*
X180340000Y-99060000D02*
X180594000Y-99314000D01*
X162302000Y-101912000D02*
X160618000Y-101912000D01*
X160618000Y-101912000D02*
X160306000Y-101600000D01*
X174502000Y-97912000D02*
X179456000Y-97912000D01*
X179456000Y-97912000D02*
X180594000Y-96774000D01*
X174502000Y-95912000D02*
X178916000Y-95912000D01*
X178916000Y-95912000D02*
X180594000Y-94234000D01*
X174502000Y-91912000D02*
X176280000Y-91912000D01*
X176280000Y-91912000D02*
X176498000Y-91694000D01*
D28*
X172532000Y-106764000D02*
X172296000Y-106764000D01*
X172296000Y-106764000D02*
X171704000Y-106172000D01*
X169894000Y-105156000D02*
X171940000Y-105156000D01*
X171940000Y-105156000D02*
X172532000Y-104564000D01*
D29*
X160528000Y-80264000D02*
X160528000Y-81280000D01*
X161036000Y-79756000D02*
X160528000Y-80264000D01*
X163830000Y-79756000D02*
X161036000Y-79756000D01*
X171704000Y-79756000D02*
X169164000Y-79756000D01*
X169164000Y-79756000D02*
X168910000Y-79756000D01*
X168910000Y-79756000D02*
X168402000Y-80264000D01*
X168402000Y-80264000D02*
X168402000Y-81280000D01*
X168402000Y-81280000D02*
X168402000Y-81312000D01*
X160782000Y-88900000D02*
X160528000Y-88900000D01*
X162052000Y-87630000D02*
X160782000Y-88900000D01*
X165608000Y-87630000D02*
X162052000Y-87630000D01*
X162302000Y-93912000D02*
X162374000Y-93912000D01*
X162374000Y-93912000D02*
X170434000Y-85852000D01*
X162302000Y-93912000D02*
X160342000Y-93912000D01*
X160342000Y-93912000D02*
X160274000Y-93980000D01*
X162302000Y-95912000D02*
X162302000Y-95762000D01*
X162302000Y-95762000D02*
X170434000Y-87630000D01*
X162302000Y-95912000D02*
X160914000Y-95912000D01*
X160914000Y-95912000D02*
X160306000Y-96520000D01*
X166116000Y-86868000D02*
X166370000Y-87122000D01*
X166370000Y-87122000D02*
X166370000Y-87844000D01*
X166370000Y-87844000D02*
X162302000Y-91912000D01*
X162302000Y-91912000D02*
X160778000Y-91912000D01*
X160778000Y-91912000D02*
X160306000Y-91440000D01*
X174502000Y-93912000D02*
X176208000Y-93912000D01*
X176208000Y-93912000D02*
X176530000Y-94234000D01*
X162302000Y-97912000D02*
X161422000Y-97912000D01*
X161422000Y-97912000D02*
X160274000Y-99060000D01*
D28*
X163357560Y-110048260D02*
X165033740Y-110048260D01*
X165033740Y-110048260D02*
X165100000Y-109982000D01*
D29*
X159486600Y-108121200D02*
X159486600Y-110609380D01*
X162302000Y-99912000D02*
X160539600Y-99912000D01*
X159486600Y-100965000D02*
X159486600Y-104121200D01*
X160539600Y-99912000D02*
X159486600Y-100965000D01*
M02*
