%FSLAX46Y46*%
G04 Gerber Fmt 4.6, Leading zero omitted, Abs format (unit mm)*
G04 Created by KiCad (PCBNEW (2014-jul-16 BZR unknown)-product) date Fri 10 Jul 2015 06:09:48 PM EDT*
%MOMM*%
G01*
G04 APERTURE LIST*
%ADD10C,0.100000*%
%ADD11R,1.250000X1.500000*%
%ADD12R,1.500000X1.250000*%
%ADD13R,2.032000X1.727200*%
%ADD14O,2.032000X1.727200*%
%ADD15R,2.032000X2.032000*%
%ADD16O,2.032000X2.032000*%
%ADD17R,2.999740X1.000760*%
%ADD18R,1.501140X0.701040*%
%ADD19C,1.000760*%
%ADD20R,1.060000X0.650000*%
%ADD21R,0.300000X1.600000*%
%ADD22C,1.998980*%
%ADD23R,1.300000X1.500000*%
%ADD24R,1.500000X1.300000*%
%ADD25C,0.889000*%
%ADD26C,0.254000*%
G04 APERTURE END LIST*
D10*
D11*
X186436000Y-126472000D03*
X186436000Y-123972000D03*
D12*
X175748000Y-114300000D03*
X173248000Y-114300000D03*
X175748000Y-112014000D03*
X173248000Y-112014000D03*
D13*
X192024000Y-106172000D03*
D14*
X192024000Y-108712000D03*
X192024000Y-111252000D03*
X192024000Y-113792000D03*
X192024000Y-116332000D03*
D15*
X173228000Y-129540000D03*
D16*
X175768000Y-129540000D03*
D17*
X172974000Y-127093980D03*
X172974000Y-119794020D03*
D18*
X175973740Y-125694440D03*
X175973740Y-121193560D03*
X175973740Y-122694700D03*
D19*
X172974000Y-124945140D03*
X172974000Y-121942860D03*
D20*
X173398000Y-118044000D03*
X173398000Y-117094000D03*
X173398000Y-116144000D03*
X175598000Y-116144000D03*
X175598000Y-118044000D03*
D21*
X186198000Y-98892000D03*
X186698000Y-98892000D03*
X187198000Y-98892000D03*
X187698000Y-98892000D03*
X188198000Y-98892000D03*
X188198000Y-103292000D03*
X187698000Y-103292000D03*
X187198000Y-103292000D03*
X186698000Y-103292000D03*
X186198000Y-103292000D03*
X179340000Y-98892000D03*
X179840000Y-98892000D03*
X180340000Y-98892000D03*
X180840000Y-98892000D03*
X181340000Y-98892000D03*
X181340000Y-103292000D03*
X180840000Y-103292000D03*
X180340000Y-103292000D03*
X179840000Y-103292000D03*
X179340000Y-103292000D03*
D22*
X187198000Y-101092000D03*
X180340000Y-101092000D03*
D23*
X184150000Y-98980000D03*
X184150000Y-101680000D03*
X177292000Y-98980000D03*
X177292000Y-101680000D03*
D24*
X185754000Y-107442000D03*
X183054000Y-107442000D03*
X185754000Y-109728000D03*
X183054000Y-109728000D03*
X185754000Y-112014000D03*
X183054000Y-112014000D03*
X185754000Y-114300000D03*
X183054000Y-114300000D03*
X185754000Y-116586000D03*
X183054000Y-116586000D03*
D15*
X187198000Y-95504000D03*
D16*
X184658000Y-95504000D03*
D15*
X180340000Y-95504000D03*
D16*
X177800000Y-95504000D03*
D25*
X189230000Y-128270000D03*
X175260000Y-119380000D03*
X189230000Y-120650000D03*
X174244000Y-123190000D03*
X175006000Y-107442000D03*
X185166000Y-103886000D03*
X178816000Y-107696000D03*
X179578000Y-109474000D03*
X186182000Y-104902000D03*
X179578000Y-111760000D03*
X187452000Y-106680000D03*
X179578000Y-113792000D03*
X178054000Y-105156000D03*
X182372000Y-103632000D03*
X179578000Y-116078000D03*
X171958000Y-118618000D03*
X172974000Y-123444000D03*
D26*
X188702000Y-126472000D02*
X186436000Y-126472000D01*
X189230000Y-127000000D02*
X188702000Y-126472000D01*
X189230000Y-128270000D02*
X189230000Y-127000000D01*
X184150000Y-101680000D02*
X182960000Y-101680000D01*
X182372000Y-101092000D02*
X180340000Y-101092000D01*
X182960000Y-101680000D02*
X182372000Y-101092000D01*
X173248000Y-112014000D02*
X173248000Y-105724000D01*
X173248000Y-105724000D02*
X177292000Y-101680000D01*
X180840000Y-103292000D02*
X180840000Y-101592000D01*
X180840000Y-101592000D02*
X180340000Y-101092000D01*
X187198000Y-101092000D02*
X187452000Y-101092000D01*
X187452000Y-101092000D02*
X188198000Y-100346000D01*
X188198000Y-100346000D02*
X188198000Y-98892000D01*
X180340000Y-101092000D02*
X180594000Y-101092000D01*
X180594000Y-101092000D02*
X181340000Y-100346000D01*
X181340000Y-100346000D02*
X181340000Y-98892000D01*
X184150000Y-101680000D02*
X186610000Y-101680000D01*
X186610000Y-101680000D02*
X187198000Y-101092000D01*
X177292000Y-101680000D02*
X179752000Y-101680000D01*
X179752000Y-101680000D02*
X180340000Y-101092000D01*
X174498000Y-117094000D02*
X174498000Y-118618000D01*
X174498000Y-118618000D02*
X175260000Y-119380000D01*
X173248000Y-114300000D02*
X174498000Y-114300000D01*
X173398000Y-117094000D02*
X174498000Y-117094000D01*
X174498000Y-112014000D02*
X173248000Y-112014000D01*
X174498000Y-117094000D02*
X174498000Y-114300000D01*
X174498000Y-114300000D02*
X174498000Y-112014000D01*
X188722000Y-123190000D02*
X189230000Y-122682000D01*
X189230000Y-122682000D02*
X189230000Y-120650000D01*
X186436000Y-123972000D02*
X187940000Y-123972000D01*
X187940000Y-123972000D02*
X188722000Y-123190000D01*
X175768000Y-128016000D02*
X177546000Y-126238000D01*
X177546000Y-126238000D02*
X177546000Y-120396000D01*
X177546000Y-120396000D02*
X177038000Y-119888000D01*
X177038000Y-119888000D02*
X175768000Y-119888000D01*
X175768000Y-119888000D02*
X175260000Y-119380000D01*
X175768000Y-129540000D02*
X175768000Y-128016000D01*
X175973740Y-122694700D02*
X175973740Y-121193560D01*
X174739300Y-122694700D02*
X174244000Y-123190000D01*
X175973740Y-122694700D02*
X174739300Y-122694700D01*
X185754000Y-109728000D02*
X185754000Y-107442000D01*
X185754000Y-112014000D02*
X185754000Y-109728000D01*
X175748000Y-112014000D02*
X175748000Y-108184000D01*
X175748000Y-108184000D02*
X175006000Y-107442000D01*
X175598000Y-118044000D02*
X175598000Y-118194000D01*
X175598000Y-118194000D02*
X176530000Y-119126000D01*
X185754000Y-117522000D02*
X185754000Y-116586000D01*
X184912000Y-118364000D02*
X185754000Y-117522000D01*
X183134000Y-118364000D02*
X184912000Y-118364000D01*
X182372000Y-119126000D02*
X183134000Y-118364000D01*
X176530000Y-119126000D02*
X182372000Y-119126000D01*
X185754000Y-112014000D02*
X185754000Y-114300000D01*
X185754000Y-114300000D02*
X185754000Y-116586000D01*
X175748000Y-114300000D02*
X175768000Y-114300000D01*
X175768000Y-114300000D02*
X176784000Y-115316000D01*
X176784000Y-116858000D02*
X175598000Y-118044000D01*
X176784000Y-115316000D02*
X176784000Y-116858000D01*
X175748000Y-112014000D02*
X175748000Y-114300000D01*
X187198000Y-98892000D02*
X187198000Y-95504000D01*
X186198000Y-98892000D02*
X186198000Y-99298000D01*
X186198000Y-99298000D02*
X185420000Y-100076000D01*
X182880000Y-97282000D02*
X184658000Y-95504000D01*
X182880000Y-99822000D02*
X182880000Y-97282000D01*
X183134000Y-100076000D02*
X182880000Y-99822000D01*
X185420000Y-100076000D02*
X183134000Y-100076000D01*
X186198000Y-98892000D02*
X186198000Y-98314000D01*
X184150000Y-98980000D02*
X184150000Y-98044000D01*
X186698000Y-97798000D02*
X186698000Y-98892000D01*
X186436000Y-97536000D02*
X186698000Y-97798000D01*
X184658000Y-97536000D02*
X186436000Y-97536000D01*
X184150000Y-98044000D02*
X184658000Y-97536000D01*
X177292000Y-98980000D02*
X177292000Y-98044000D01*
X179840000Y-97798000D02*
X179840000Y-98892000D01*
X179578000Y-97536000D02*
X179840000Y-97798000D01*
X177800000Y-97536000D02*
X179578000Y-97536000D01*
X177292000Y-98044000D02*
X177800000Y-97536000D01*
X183054000Y-107442000D02*
X183054000Y-105918000D01*
X183054000Y-105918000D02*
X183134000Y-105918000D01*
X187198000Y-105410000D02*
X187452000Y-105410000D01*
X187698000Y-105164000D02*
X187698000Y-103292000D01*
X187452000Y-105410000D02*
X187698000Y-105164000D01*
X180340000Y-103292000D02*
X180340000Y-105410000D01*
X187198000Y-105410000D02*
X187198000Y-103292000D01*
X186690000Y-105918000D02*
X187198000Y-105410000D01*
X180848000Y-105918000D02*
X183134000Y-105918000D01*
X183134000Y-105918000D02*
X186690000Y-105918000D01*
X180340000Y-105410000D02*
X180848000Y-105918000D01*
X186198000Y-103292000D02*
X185760000Y-103292000D01*
X185760000Y-103292000D02*
X185166000Y-103886000D01*
X179340000Y-104124000D02*
X179340000Y-103292000D01*
X178816000Y-104648000D02*
X179340000Y-104124000D01*
X178816000Y-107696000D02*
X178816000Y-104648000D01*
X179832000Y-109728000D02*
X183054000Y-109728000D01*
X179578000Y-109474000D02*
X179832000Y-109728000D01*
X186698000Y-103292000D02*
X186698000Y-104386000D01*
X186698000Y-104386000D02*
X186182000Y-104902000D01*
X179840000Y-103292000D02*
X179840000Y-107942000D01*
X178816000Y-110998000D02*
X179578000Y-111760000D01*
X178816000Y-108966000D02*
X178816000Y-110998000D01*
X179840000Y-107942000D02*
X178816000Y-108966000D01*
X179832000Y-112014000D02*
X183054000Y-112014000D01*
X179578000Y-111760000D02*
X179832000Y-112014000D01*
X188198000Y-105934000D02*
X188198000Y-103292000D01*
X187452000Y-106680000D02*
X188198000Y-105934000D01*
X180086000Y-114300000D02*
X183054000Y-114300000D01*
X179578000Y-113792000D02*
X180086000Y-114300000D01*
X181340000Y-103292000D02*
X182032000Y-103292000D01*
X179324000Y-116078000D02*
X179578000Y-116078000D01*
X178054000Y-114808000D02*
X179324000Y-116078000D01*
X178054000Y-105156000D02*
X178054000Y-114808000D01*
X182032000Y-103292000D02*
X182372000Y-103632000D01*
X180086000Y-116586000D02*
X183054000Y-116586000D01*
X179578000Y-116078000D02*
X180086000Y-116586000D01*
X172212000Y-116332000D02*
X172212000Y-115824000D01*
X175514000Y-93980000D02*
X182372000Y-93980000D01*
X171958000Y-97536000D02*
X175514000Y-93980000D01*
X171958000Y-115570000D02*
X171958000Y-97536000D01*
X172212000Y-115824000D02*
X171958000Y-115570000D01*
X187698000Y-98892000D02*
X187698000Y-97798000D01*
X187698000Y-97798000D02*
X187960000Y-97536000D01*
X187960000Y-97536000D02*
X188468000Y-97536000D01*
X188468000Y-97536000D02*
X189230000Y-96774000D01*
X189230000Y-96774000D02*
X189230000Y-94234000D01*
X189230000Y-94234000D02*
X188976000Y-93980000D01*
X188976000Y-93980000D02*
X182372000Y-93980000D01*
X180840000Y-97798000D02*
X181102000Y-97536000D01*
X180840000Y-97798000D02*
X180840000Y-98892000D01*
X182372000Y-96774000D02*
X182372000Y-93980000D01*
X181610000Y-97536000D02*
X182372000Y-96774000D01*
X181102000Y-97536000D02*
X181610000Y-97536000D01*
X173398000Y-118044000D02*
X173332000Y-118110000D01*
X173332000Y-118110000D02*
X172466000Y-118110000D01*
X172466000Y-118110000D02*
X172212000Y-117856000D01*
X172212000Y-117856000D02*
X172212000Y-117348000D01*
X172212000Y-117348000D02*
X172212000Y-116332000D01*
X172212000Y-116332000D02*
X172400000Y-116144000D01*
X172400000Y-116144000D02*
X173398000Y-116144000D01*
X171958000Y-118618000D02*
X172466000Y-118110000D01*
X175224440Y-125694440D02*
X172974000Y-123444000D01*
X175973740Y-125694440D02*
X175224440Y-125694440D01*
X180340000Y-98892000D02*
X180340000Y-95504000D01*
X179340000Y-98892000D02*
X179340000Y-99298000D01*
X179340000Y-99298000D02*
X178562000Y-100076000D01*
X176022000Y-97282000D02*
X177800000Y-95504000D01*
X176022000Y-99822000D02*
X176022000Y-97282000D01*
X176276000Y-100076000D02*
X176022000Y-99822000D01*
X178562000Y-100076000D02*
X176276000Y-100076000D01*
X179340000Y-98892000D02*
X179340000Y-98568000D01*
M02*
