%FSLAX46Y46*%
G04 Gerber Fmt 4.6, Leading zero omitted, Abs format (unit mm)*
G04 Created by KiCad (PCBNEW (2014-jul-16 BZR unknown)-product) date Fri 10 Jul 2015 06:09:48 PM EDT*
%MOMM*%
G01*
G04 APERTURE LIST*
%ADD10C,0.100000*%
%ADD11R,1.650000X1.900000*%
%ADD12R,1.900000X1.650000*%
%ADD13R,2.432000X2.127200*%
%ADD14O,2.432000X2.127200*%
%ADD15R,2.432000X2.432000*%
%ADD16O,2.432000X2.432000*%
%ADD17R,3.399740X1.400760*%
%ADD18R,1.901140X1.101040*%
%ADD19R,1.460000X1.050000*%
%ADD20R,0.452400X1.752400*%
%ADD21C,2.398980*%
%ADD22R,1.700000X1.900000*%
%ADD23R,1.900000X1.700000*%
G04 APERTURE END LIST*
D10*
D11*
X186436000Y-126472000D03*
X186436000Y-123972000D03*
D12*
X175748000Y-114300000D03*
X173248000Y-114300000D03*
X175748000Y-112014000D03*
X173248000Y-112014000D03*
D13*
X192024000Y-106172000D03*
D14*
X192024000Y-108712000D03*
X192024000Y-111252000D03*
X192024000Y-113792000D03*
X192024000Y-116332000D03*
D15*
X173228000Y-129540000D03*
D16*
X175768000Y-129540000D03*
D17*
X172974000Y-127093980D03*
X172974000Y-119794020D03*
D18*
X175973740Y-125694440D03*
X175973740Y-121193560D03*
X175973740Y-122694700D03*
D19*
X173398000Y-118044000D03*
X173398000Y-117094000D03*
X173398000Y-116144000D03*
X175598000Y-116144000D03*
X175598000Y-118044000D03*
D20*
X186198000Y-98892000D03*
X186698000Y-98892000D03*
X187198000Y-98892000D03*
X187698000Y-98892000D03*
X188198000Y-98892000D03*
X188198000Y-103292000D03*
X187698000Y-103292000D03*
X187198000Y-103292000D03*
X186698000Y-103292000D03*
X186198000Y-103292000D03*
X179340000Y-98892000D03*
X179840000Y-98892000D03*
X180340000Y-98892000D03*
X180840000Y-98892000D03*
X181340000Y-98892000D03*
X181340000Y-103292000D03*
X180840000Y-103292000D03*
X180340000Y-103292000D03*
X179840000Y-103292000D03*
X179340000Y-103292000D03*
D21*
X187198000Y-101092000D03*
X180340000Y-101092000D03*
D22*
X184150000Y-98980000D03*
X184150000Y-101680000D03*
X177292000Y-98980000D03*
X177292000Y-101680000D03*
D23*
X185754000Y-107442000D03*
X183054000Y-107442000D03*
X185754000Y-109728000D03*
X183054000Y-109728000D03*
X185754000Y-112014000D03*
X183054000Y-112014000D03*
X185754000Y-114300000D03*
X183054000Y-114300000D03*
X185754000Y-116586000D03*
X183054000Y-116586000D03*
D15*
X187198000Y-95504000D03*
D16*
X184658000Y-95504000D03*
D15*
X180340000Y-95504000D03*
D16*
X177800000Y-95504000D03*
M02*
