M48
INCH,TZ
T1C0.025
T2C0.032
T3C0.039
T4C0.040
%
G90
G05
T1
X67700Y-46700
X68100Y-48600
X68600Y-48500
X68900Y-42300
X69000Y-47000
X70100Y-41400
X70400Y-42400
X70700Y-43100
X70700Y-44000
X70700Y-44800
X70700Y-45700
X71800Y-40800
X72900Y-40900
X73300Y-41300
X73800Y-42000
X74500Y-47500
X74500Y-50500
T2
X71000Y-39800
X73700Y-39800
T3
X68100Y-48009
X68100Y-49191
T4
X68200Y-51000
X69200Y-51000
X70000Y-37600
X71000Y-37600
X72700Y-37600
X73700Y-37600
X75600Y-41800
X75600Y-42800
X75600Y-43800
X75600Y-44800
X75600Y-45800
T0
M30
