%FSLAX46Y46*%
G04 Gerber Fmt 4.6, Leading zero omitted, Abs format (unit mm)*
G04 Created by KiCad (PCBNEW (2014-jul-16 BZR unknown)-product) date Fri 10 Jul 2015 06:09:48 PM EDT*
%MOMM*%
G01*
G04 APERTURE LIST*
%ADD10C,0.100000*%
%ADD11R,2.900000X2.400000*%
%ADD12R,1.650000X1.900000*%
%ADD13R,1.598880X1.598880*%
%ADD14R,3.600000X4.000000*%
%ADD15R,2.432000X2.127200*%
%ADD16O,2.432000X2.127200*%
%ADD17R,2.432000X2.432000*%
%ADD18O,2.432000X2.432000*%
%ADD19R,1.460000X1.050000*%
%ADD20R,1.400000X1.400000*%
%ADD21C,2.398980*%
%ADD22R,1.900000X1.700000*%
G04 APERTURE END LIST*
D10*
D11*
X192024000Y-124428000D03*
X192024000Y-120428000D03*
D12*
X176022000Y-123932000D03*
X176022000Y-121432000D03*
D13*
X179798980Y-130556000D03*
X181897020Y-130556000D03*
D14*
X186436000Y-129322000D03*
X186436000Y-121122000D03*
D15*
X192024000Y-106172000D03*
D16*
X192024000Y-108712000D03*
X192024000Y-111252000D03*
X192024000Y-113792000D03*
X192024000Y-116332000D03*
D17*
X173228000Y-129540000D03*
D18*
X175768000Y-129540000D03*
D19*
X179240000Y-123002000D03*
X179240000Y-123952000D03*
X179240000Y-124902000D03*
X181440000Y-124902000D03*
X181440000Y-123002000D03*
D20*
X176780000Y-117406000D03*
X176780000Y-115406000D03*
X176780000Y-113406000D03*
X176780000Y-111406000D03*
X176780000Y-109406000D03*
X176780000Y-107406000D03*
X176780000Y-105406000D03*
X188980000Y-117406000D03*
X188980000Y-115406000D03*
X188980000Y-113406000D03*
X188980000Y-111406000D03*
X188980000Y-109406000D03*
X188980000Y-107406000D03*
X188980000Y-105406000D03*
D21*
X187198000Y-101092000D03*
X180340000Y-101092000D03*
D22*
X178990000Y-127762000D03*
X181690000Y-127762000D03*
X181690000Y-120904000D03*
X178990000Y-120904000D03*
D17*
X187198000Y-95504000D03*
D18*
X184658000Y-95504000D03*
D17*
X180340000Y-95504000D03*
D18*
X177800000Y-95504000D03*
M02*
