%FSLAX46Y46*%
G04 Gerber Fmt 4.6, Leading zero omitted, Abs format (unit mm)*
G04 Created by KiCad (PCBNEW (2014-jul-16 BZR unknown)-product) date Fri 10 Jul 2015 06:09:48 PM EDT*
%MOMM*%
G01*
G04 APERTURE LIST*
%ADD10C,0.100000*%
%ADD11C,0.150000*%
%ADD12C,0.203200*%
G04 APERTURE END LIST*
D10*
D11*
X187286000Y-124722000D02*
X187286000Y-125722000D01*
X185586000Y-125722000D02*
X185586000Y-124722000D01*
X173998000Y-113450000D02*
X174998000Y-113450000D01*
X174998000Y-115150000D02*
X173998000Y-115150000D01*
X173998000Y-111164000D02*
X174998000Y-111164000D01*
X174998000Y-112864000D02*
X173998000Y-112864000D01*
X174298000Y-118794000D02*
G75*
G03X174298000Y-118794000I-100000J0D01*
G74*
G01*
X174748000Y-118544000D02*
X174248000Y-118544000D01*
X174748000Y-115644000D02*
X174748000Y-118544000D01*
X174248000Y-115644000D02*
X174748000Y-115644000D01*
X174248000Y-118544000D02*
X174248000Y-115644000D01*
D12*
X185801000Y-98552000D02*
G75*
G03X185801000Y-98552000I-254000J0D01*
G74*
G01*
X186698000Y-99592000D02*
X186498000Y-99592000D01*
X186498000Y-99592000D02*
X185698000Y-100392000D01*
X185698000Y-100392000D02*
X185698000Y-100592000D01*
X188698000Y-99592000D02*
X186698000Y-99592000D01*
X188698000Y-99592000D02*
X188698000Y-102592000D01*
X188698000Y-102592000D02*
X185698000Y-102592000D01*
X185698000Y-102592000D02*
X185698000Y-100592000D01*
X178943000Y-98552000D02*
G75*
G03X178943000Y-98552000I-254000J0D01*
G74*
G01*
X179840000Y-99592000D02*
X179640000Y-99592000D01*
X179640000Y-99592000D02*
X178840000Y-100392000D01*
X178840000Y-100392000D02*
X178840000Y-100592000D01*
X181840000Y-99592000D02*
X179840000Y-99592000D01*
X181840000Y-99592000D02*
X181840000Y-102592000D01*
X181840000Y-102592000D02*
X178840000Y-102592000D01*
X178840000Y-102592000D02*
X178840000Y-100592000D01*
D11*
X185025000Y-100930000D02*
X185025000Y-99730000D01*
X183275000Y-99730000D02*
X183275000Y-100930000D01*
X178167000Y-100930000D02*
X178167000Y-99730000D01*
X176417000Y-99730000D02*
X176417000Y-100930000D01*
X183804000Y-108317000D02*
X185004000Y-108317000D01*
X185004000Y-106567000D02*
X183804000Y-106567000D01*
X183804000Y-110603000D02*
X185004000Y-110603000D01*
X185004000Y-108853000D02*
X183804000Y-108853000D01*
X183804000Y-112889000D02*
X185004000Y-112889000D01*
X185004000Y-111139000D02*
X183804000Y-111139000D01*
X183804000Y-115175000D02*
X185004000Y-115175000D01*
X185004000Y-113425000D02*
X183804000Y-113425000D01*
X183804000Y-117461000D02*
X185004000Y-117461000D01*
X185004000Y-115711000D02*
X183804000Y-115711000D01*
M02*
