solid OpenSCAD_Model
  facet normal 1 -0 0
    outer loop
      vertex -0.7 -1.925 3
      vertex -0.7 -0.7 1
      vertex -0.7 -0.7 3
    endloop
  endfacet
  facet normal 1 0 0
    outer loop
      vertex -0.7 -0.7 1
      vertex -0.7 -1.925 3
      vertex -0.7 -1.925 1
    endloop
  endfacet
  facet normal 1 -0 0
    outer loop
      vertex -0.7 0.7 3
      vertex -0.7 1.925 1
      vertex -0.7 1.925 3
    endloop
  endfacet
  facet normal 1 0 0
    outer loop
      vertex -0.7 1.925 1
      vertex -0.7 0.7 3
      vertex -0.7 0.7 1
    endloop
  endfacet
  facet normal -0 0 1
    outer loop
      vertex -1.925 -0.7 3
      vertex -0.7 -1.925 3
      vertex -0.7 -0.7 3
    endloop
  endfacet
  facet normal 0 0 1
    outer loop
      vertex -0.7 -1.925 3
      vertex -1.45153 -5.82177 3
      vertex -1.04189 -5.90885 3
    endloop
  endfacet
  facet normal 0 0 1
    outer loop
      vertex -0.7 -1.925 3
      vertex -1.8541 -5.70634 3
      vertex -1.45153 -5.82177 3
    endloop
  endfacet
  facet normal 0 0 1
    outer loop
      vertex -4.31604 -4.16795 3
      vertex -0.7 -1.925 3
      vertex -1.925 -0.7 3
    endloop
  endfacet
  facet normal -0 0 1
    outer loop
      vertex -3.35516 4.97423 3
      vertex -0.7 1.925 3
      vertex -3 5.19615 3
    endloop
  endfacet
  facet normal 0 0 1
    outer loop
      vertex -0.7 -1.925 3
      vertex -2.24764 -5.5631 3
      vertex -1.8541 -5.70634 3
    endloop
  endfacet
  facet normal -0 0 1
    outer loop
      vertex -3.69397 4.72806 3
      vertex -0.7 1.925 3
      vertex -3.35516 4.97423 3
    endloop
  endfacet
  facet normal 0 0 1
    outer loop
      vertex -0.7 -1.925 3
      vertex -2.63023 -5.39276 3
      vertex -2.24764 -5.5631 3
    endloop
  endfacet
  facet normal -0 0 1
    outer loop
      vertex -4.01478 4.45887 3
      vertex -0.7 1.925 3
      vertex -3.69397 4.72806 3
    endloop
  endfacet
  facet normal 0 0 1
    outer loop
      vertex -0.7 -1.925 3
      vertex -3 -5.19615 3
      vertex -2.63023 -5.39276 3
    endloop
  endfacet
  facet normal -0 0 1
    outer loop
      vertex -4.31604 4.16795 3
      vertex -0.7 1.925 3
      vertex -4.01478 4.45887 3
    endloop
  endfacet
  facet normal 0 0 1
    outer loop
      vertex -0.7 -1.925 3
      vertex -3.35516 -4.97423 3
      vertex -3 -5.19615 3
    endloop
  endfacet
  facet normal 0 0 1
    outer loop
      vertex -0.7 1.925 3
      vertex -4.31604 4.16795 3
      vertex -1.925 0.7 3
    endloop
  endfacet
  facet normal 0 0 1
    outer loop
      vertex -0.7 -1.925 3
      vertex -3.69397 -4.72806 3
      vertex -3.35516 -4.97423 3
    endloop
  endfacet
  facet normal -0 0 1
    outer loop
      vertex -4.59627 3.85672 3
      vertex -1.925 0.7 3
      vertex -4.31604 4.16795 3
    endloop
  endfacet
  facet normal 0 0 1
    outer loop
      vertex -0.7 -1.925 3
      vertex -4.01478 -4.45887 3
      vertex -3.69397 -4.72806 3
    endloop
  endfacet
  facet normal -0 0 1
    outer loop
      vertex -4.8541 3.52671 3
      vertex -1.925 0.7 3
      vertex -4.59627 3.85672 3
    endloop
  endfacet
  facet normal 0 0 1
    outer loop
      vertex -0.7 -1.925 3
      vertex -4.31604 -4.16795 3
      vertex -4.01478 -4.45887 3
    endloop
  endfacet
  facet normal -0 0 1
    outer loop
      vertex -5.08829 3.17951 3
      vertex -1.925 0.7 3
      vertex -4.8541 3.52671 3
    endloop
  endfacet
  facet normal 0 0 1
    outer loop
      vertex -1.925 -0.7 3
      vertex -4.59627 -3.85672 3
      vertex -4.31604 -4.16795 3
    endloop
  endfacet
  facet normal -0 0 1
    outer loop
      vertex -5.29768 2.81683 3
      vertex -1.925 0.7 3
      vertex -5.08829 3.17951 3
    endloop
  endfacet
  facet normal 0 0 1
    outer loop
      vertex -1.925 -0.7 3
      vertex -4.8541 -3.52671 3
      vertex -4.59627 -3.85672 3
    endloop
  endfacet
  facet normal -0 0 1
    outer loop
      vertex -5.48127 2.44042 3
      vertex -1.925 0.7 3
      vertex -5.29768 2.81683 3
    endloop
  endfacet
  facet normal 0 0 1
    outer loop
      vertex -1.925 -0.7 3
      vertex -5.08829 -3.17951 3
      vertex -4.8541 -3.52671 3
    endloop
  endfacet
  facet normal -0 0 1
    outer loop
      vertex -5.63815 2.05212 3
      vertex -1.925 0.7 3
      vertex -5.48127 2.44042 3
    endloop
  endfacet
  facet normal 0 0 1
    outer loop
      vertex -1.925 -0.7 3
      vertex -5.29768 -2.81683 3
      vertex -5.08829 -3.17951 3
    endloop
  endfacet
  facet normal -0 0 1
    outer loop
      vertex -5.76757 1.65382 3
      vertex -1.925 0.7 3
      vertex -5.63815 2.05212 3
    endloop
  endfacet
  facet normal 0 0 1
    outer loop
      vertex -1.925 -0.7 3
      vertex -5.48127 -2.44042 3
      vertex -5.29768 -2.81683 3
    endloop
  endfacet
  facet normal -0 0 1
    outer loop
      vertex -5.86889 1.24747 3
      vertex -1.925 0.7 3
      vertex -5.76757 1.65382 3
    endloop
  endfacet
  facet normal 0 0 1
    outer loop
      vertex -1.925 -0.7 3
      vertex -5.63815 -2.05212 3
      vertex -5.48127 -2.44042 3
    endloop
  endfacet
  facet normal -0 0 1
    outer loop
      vertex -5.94161 0.835038 3
      vertex -1.925 0.7 3
      vertex -5.86889 1.24747 3
    endloop
  endfacet
  facet normal 0 0 1
    outer loop
      vertex -1.925 -0.7 3
      vertex -5.76757 -1.65382 3
      vertex -5.63815 -2.05212 3
    endloop
  endfacet
  facet normal 0 0 1
    outer loop
      vertex -5.98538 0.418538 3
      vertex -1.925 0.7 3
      vertex -5.94161 0.835038 3
    endloop
  endfacet
  facet normal 0 0 1
    outer loop
      vertex -1.925 -0.7 3
      vertex -5.86889 -1.24747 3
      vertex -5.76757 -1.65382 3
    endloop
  endfacet
  facet normal 0 0 1
    outer loop
      vertex -6 0 3
      vertex -1.925 0.7 3
      vertex -5.98538 0.418538 3
    endloop
  endfacet
  facet normal 0 0 1
    outer loop
      vertex -1.925 -0.7 3
      vertex -5.94161 -0.835038 3
      vertex -5.86889 -1.24747 3
    endloop
  endfacet
  facet normal 0 0 1
    outer loop
      vertex -1.925 0.7 3
      vertex -6 0 3
      vertex -1.925 -0.7 3
    endloop
  endfacet
  facet normal 0 0 1
    outer loop
      vertex -1.925 -0.7 3
      vertex -5.98538 -0.418538 3
      vertex -5.94161 -0.835038 3
    endloop
  endfacet
  facet normal 0 0 1
    outer loop
      vertex -1.925 -0.7 3
      vertex -6 0 3
      vertex -5.98538 -0.418538 3
    endloop
  endfacet
  facet normal 0 0 1
    outer loop
      vertex 0.627171 5.96713 3
      vertex 0.7 1.925 3
      vertex 1.04189 5.90885 3
    endloop
  endfacet
  facet normal 0 0 1
    outer loop
      vertex 0.209396 5.99634 3
      vertex 0.7 1.925 3
      vertex 0.627171 5.96713 3
    endloop
  endfacet
  facet normal -0 0 1
    outer loop
      vertex -0.209396 5.99634 3
      vertex 0.7 1.925 3
      vertex 0.209396 5.99634 3
    endloop
  endfacet
  facet normal 0 0 1
    outer loop
      vertex -0.7 1.925 3
      vertex -0.209396 5.99634 3
      vertex -0.627171 5.96713 3
    endloop
  endfacet
  facet normal 0 0 1
    outer loop
      vertex -0.209396 5.99634 3
      vertex -0.7 1.925 3
      vertex 0.7 1.925 3
    endloop
  endfacet
  facet normal -0 0 1
    outer loop
      vertex -1.04189 5.90885 3
      vertex -0.7 1.925 3
      vertex -0.627171 5.96713 3
    endloop
  endfacet
  facet normal -0 0 1
    outer loop
      vertex -1.45153 5.82177 3
      vertex -0.7 1.925 3
      vertex -1.04189 5.90885 3
    endloop
  endfacet
  facet normal -0 0 1
    outer loop
      vertex -1.8541 5.70634 3
      vertex -0.7 1.925 3
      vertex -1.45153 5.82177 3
    endloop
  endfacet
  facet normal -0 0 1
    outer loop
      vertex -2.24764 5.5631 3
      vertex -0.7 1.925 3
      vertex -1.8541 5.70634 3
    endloop
  endfacet
  facet normal -0 0 1
    outer loop
      vertex -2.63023 5.39276 3
      vertex -0.7 1.925 3
      vertex -2.24764 5.5631 3
    endloop
  endfacet
  facet normal -0 0 1
    outer loop
      vertex -3 5.19615 3
      vertex -0.7 1.925 3
      vertex -2.63023 5.39276 3
    endloop
  endfacet
  facet normal 0 0 1
    outer loop
      vertex -0.7 1.925 3
      vertex -1.925 0.7 3
      vertex -0.7 0.7 3
    endloop
  endfacet
  facet normal 0 0 1
    outer loop
      vertex 1.925 0.7 3
      vertex 6 0 3
      vertex 5.98538 0.418538 3
    endloop
  endfacet
  facet normal -0 0 1
    outer loop
      vertex 1.925 0.7 3
      vertex 5.98538 0.418538 3
      vertex 5.94161 0.835038 3
    endloop
  endfacet
  facet normal 0 0 1
    outer loop
      vertex 1.925 -0.7 3
      vertex 6 0 3
      vertex 1.925 0.7 3
    endloop
  endfacet
  facet normal 0 0 1
    outer loop
      vertex 1.925 0.7 3
      vertex 5.94161 0.835038 3
      vertex 5.86889 1.24747 3
    endloop
  endfacet
  facet normal 0 0 1
    outer loop
      vertex 6 0 3
      vertex 1.925 -0.7 3
      vertex 5.98538 -0.418538 3
    endloop
  endfacet
  facet normal 0 0 1
    outer loop
      vertex 1.925 0.7 3
      vertex 5.86889 1.24747 3
      vertex 5.76757 1.65382 3
    endloop
  endfacet
  facet normal 0 0 1
    outer loop
      vertex 5.98538 -0.418538 3
      vertex 1.925 -0.7 3
      vertex 5.94161 -0.835038 3
    endloop
  endfacet
  facet normal 0 0 1
    outer loop
      vertex 1.925 0.7 3
      vertex 5.76757 1.65382 3
      vertex 5.63815 2.05212 3
    endloop
  endfacet
  facet normal 0 0 1
    outer loop
      vertex 5.94161 -0.835038 3
      vertex 1.925 -0.7 3
      vertex 5.86889 -1.24747 3
    endloop
  endfacet
  facet normal 0 0 1
    outer loop
      vertex 1.925 0.7 3
      vertex 5.63815 2.05212 3
      vertex 5.48127 2.44042 3
    endloop
  endfacet
  facet normal 0 0 1
    outer loop
      vertex 5.86889 -1.24747 3
      vertex 1.925 -0.7 3
      vertex 5.76757 -1.65382 3
    endloop
  endfacet
  facet normal 0 0 1
    outer loop
      vertex 1.925 0.7 3
      vertex 5.48127 2.44042 3
      vertex 5.29768 2.81683 3
    endloop
  endfacet
  facet normal 0 0 1
    outer loop
      vertex 5.76757 -1.65382 3
      vertex 1.925 -0.7 3
      vertex 5.63815 -2.05212 3
    endloop
  endfacet
  facet normal 0 0 1
    outer loop
      vertex 1.925 0.7 3
      vertex 5.29768 2.81683 3
      vertex 5.08829 3.17951 3
    endloop
  endfacet
  facet normal 0 0 1
    outer loop
      vertex 5.63815 -2.05212 3
      vertex 1.925 -0.7 3
      vertex 5.48127 -2.44042 3
    endloop
  endfacet
  facet normal 0 0 1
    outer loop
      vertex 1.925 0.7 3
      vertex 5.08829 3.17951 3
      vertex 4.8541 3.52671 3
    endloop
  endfacet
  facet normal 0 0 1
    outer loop
      vertex 5.48127 -2.44042 3
      vertex 1.925 -0.7 3
      vertex 5.29768 -2.81683 3
    endloop
  endfacet
  facet normal 0 0 1
    outer loop
      vertex 1.925 0.7 3
      vertex 4.8541 3.52671 3
      vertex 4.59627 3.85672 3
    endloop
  endfacet
  facet normal 0 0 1
    outer loop
      vertex 5.29768 -2.81683 3
      vertex 1.925 -0.7 3
      vertex 5.08829 -3.17951 3
    endloop
  endfacet
  facet normal 0 0 1
    outer loop
      vertex 1.925 0.7 3
      vertex 4.59627 3.85672 3
      vertex 4.31604 4.16795 3
    endloop
  endfacet
  facet normal 0 0 1
    outer loop
      vertex 5.08829 -3.17951 3
      vertex 1.925 -0.7 3
      vertex 4.8541 -3.52671 3
    endloop
  endfacet
  facet normal 0 0 1
    outer loop
      vertex 0.7 1.925 3
      vertex 4.31604 4.16795 3
      vertex 4.01478 4.45887 3
    endloop
  endfacet
  facet normal 0 0 1
    outer loop
      vertex 4.8541 -3.52671 3
      vertex 1.925 -0.7 3
      vertex 4.59627 -3.85672 3
    endloop
  endfacet
  facet normal 0 0 1
    outer loop
      vertex 0.7 1.925 3
      vertex 4.01478 4.45887 3
      vertex 3.69397 4.72806 3
    endloop
  endfacet
  facet normal 0 0 1
    outer loop
      vertex 4.59627 -3.85672 3
      vertex 1.925 -0.7 3
      vertex 4.31604 -4.16795 3
    endloop
  endfacet
  facet normal 0 0 1
    outer loop
      vertex 0.7 1.925 3
      vertex 3.69397 4.72806 3
      vertex 3.35516 4.97423 3
    endloop
  endfacet
  facet normal -0 0 1
    outer loop
      vertex 0.7 -1.925 3
      vertex 4.31604 -4.16795 3
      vertex 1.925 -0.7 3
    endloop
  endfacet
  facet normal 0 0 1
    outer loop
      vertex 0.7 1.925 3
      vertex 3.35516 4.97423 3
      vertex 3 5.19615 3
    endloop
  endfacet
  facet normal 0 0 1
    outer loop
      vertex 4.31604 -4.16795 3
      vertex 0.7 -1.925 3
      vertex 4.01478 -4.45887 3
    endloop
  endfacet
  facet normal 0 0 1
    outer loop
      vertex 0.7 1.925 3
      vertex 3 5.19615 3
      vertex 2.63023 5.39276 3
    endloop
  endfacet
  facet normal 0 0 1
    outer loop
      vertex 4.01478 -4.45887 3
      vertex 0.7 -1.925 3
      vertex 3.69397 -4.72806 3
    endloop
  endfacet
  facet normal 0 0 1
    outer loop
      vertex 0.7 1.925 3
      vertex 2.63023 5.39276 3
      vertex 2.24764 5.5631 3
    endloop
  endfacet
  facet normal 0 0 1
    outer loop
      vertex 3.69397 -4.72806 3
      vertex 0.7 -1.925 3
      vertex 3.35516 -4.97423 3
    endloop
  endfacet
  facet normal 0 0 1
    outer loop
      vertex 3.35516 -4.97423 3
      vertex 0.7 -1.925 3
      vertex 3 -5.19615 3
    endloop
  endfacet
  facet normal 0 0 1
    outer loop
      vertex 0.7 1.925 3
      vertex 2.24764 5.5631 3
      vertex 1.8541 5.70634 3
    endloop
  endfacet
  facet normal 0 0 1
    outer loop
      vertex 0.7 1.925 3
      vertex 1.8541 5.70634 3
      vertex 1.45153 5.82177 3
    endloop
  endfacet
  facet normal 0 0 1
    outer loop
      vertex 0.7 1.925 3
      vertex 1.45153 5.82177 3
      vertex 1.04189 5.90885 3
    endloop
  endfacet
  facet normal 0 0 1
    outer loop
      vertex 4.31604 4.16795 3
      vertex 0.7 1.925 3
      vertex 1.925 0.7 3
    endloop
  endfacet
  facet normal 0 0 1
    outer loop
      vertex 1.925 0.7 3
      vertex 0.7 1.925 3
      vertex 0.7 0.7 3
    endloop
  endfacet
  facet normal 0 0 1
    outer loop
      vertex 3 -5.19615 3
      vertex 0.7 -1.925 3
      vertex 2.63023 -5.39276 3
    endloop
  endfacet
  facet normal 0 0 1
    outer loop
      vertex 2.63023 -5.39276 3
      vertex 0.7 -1.925 3
      vertex 2.24764 -5.5631 3
    endloop
  endfacet
  facet normal 0 0 1
    outer loop
      vertex 2.24764 -5.5631 3
      vertex 0.7 -1.925 3
      vertex 1.8541 -5.70634 3
    endloop
  endfacet
  facet normal 0 0 1
    outer loop
      vertex 1.8541 -5.70634 3
      vertex 0.7 -1.925 3
      vertex 1.45153 -5.82177 3
    endloop
  endfacet
  facet normal 0 0 1
    outer loop
      vertex 0.7 -1.925 3
      vertex 1.925 -0.7 3
      vertex 0.7 -0.7 3
    endloop
  endfacet
  facet normal 0 0 1
    outer loop
      vertex 1.45153 -5.82177 3
      vertex 0.7 -1.925 3
      vertex 1.04189 -5.90885 3
    endloop
  endfacet
  facet normal 0 0 1
    outer loop
      vertex 0.7 -1.925 3
      vertex 0.627171 -5.96713 3
      vertex 1.04189 -5.90885 3
    endloop
  endfacet
  facet normal 0 0 1
    outer loop
      vertex 0.7 -1.925 3
      vertex 0.209396 -5.99634 3
      vertex 0.627171 -5.96713 3
    endloop
  endfacet
  facet normal 0 0 1
    outer loop
      vertex 0.7 -1.925 3
      vertex -0.209396 -5.99634 3
      vertex 0.209396 -5.99634 3
    endloop
  endfacet
  facet normal -0 0 1
    outer loop
      vertex -0.7 -1.925 3
      vertex -0.209396 -5.99634 3
      vertex 0.7 -1.925 3
    endloop
  endfacet
  facet normal 0 0 1
    outer loop
      vertex -0.209396 -5.99634 3
      vertex -0.7 -1.925 3
      vertex -0.627171 -5.96713 3
    endloop
  endfacet
  facet normal 0 0 1
    outer loop
      vertex -0.627171 -5.96713 3
      vertex -0.7 -1.925 3
      vertex -1.04189 -5.90885 3
    endloop
  endfacet
  facet normal -1 0 0
    outer loop
      vertex 0.7 -1.925 1
      vertex 0.7 -0.7 3
      vertex 0.7 -0.7 1
    endloop
  endfacet
  facet normal -1 -0 0
    outer loop
      vertex 0.7 -0.7 3
      vertex 0.7 -1.925 1
      vertex 0.7 -1.925 3
    endloop
  endfacet
  facet normal -1 0 0
    outer loop
      vertex 0.7 0.7 1
      vertex 0.7 1.925 3
      vertex 0.7 1.925 1
    endloop
  endfacet
  facet normal -1 -0 0
    outer loop
      vertex 0.7 1.925 3
      vertex 0.7 0.7 1
      vertex 0.7 0.7 3
    endloop
  endfacet
  facet normal 0 -1 0
    outer loop
      vertex -0.7 1.925 1
      vertex 0.7 1.925 3
      vertex -0.7 1.925 3
    endloop
  endfacet
  facet normal 0 -1 -0
    outer loop
      vertex 0.7 1.925 3
      vertex -0.7 1.925 1
      vertex 0.7 1.925 1
    endloop
  endfacet
  facet normal 0 0 1
    outer loop
      vertex 0.684703 0.145537 1
      vertex 1.925 0.7 1
      vertex 0.7 0.7 1
    endloop
  endfacet
  facet normal 0 -0 1
    outer loop
      vertex 0.7 0 1
      vertex 1.925 0.7 1
      vertex 0.684703 0.145537 1
    endloop
  endfacet
  facet normal -0 0 1
    outer loop
      vertex 0.684703 -0.145537 1
      vertex 1.925 -0.7 1
      vertex 0.7 0 1
    endloop
  endfacet
  facet normal 0 0 1
    outer loop
      vertex 1.925 -0.7 1
      vertex 0.684703 -0.145537 1
      vertex 0.7 -0.7 1
    endloop
  endfacet
  facet normal -0 0 1
    outer loop
      vertex 0.639482 -0.284715 1
      vertex 0.7 -0.7 1
      vertex 0.684703 -0.145537 1
    endloop
  endfacet
  facet normal -0 0 1
    outer loop
      vertex 0.566312 -0.411449 1
      vertex 0.7 -0.7 1
      vertex 0.639482 -0.284715 1
    endloop
  endfacet
  facet normal -0 0 1
    outer loop
      vertex 0.468391 -0.520201 1
      vertex 0.7 -0.7 1
      vertex 0.566312 -0.411449 1
    endloop
  endfacet
  facet normal -0 0 1
    outer loop
      vertex 0.349999 -0.606217 1
      vertex 0.7 -0.7 1
      vertex 0.468391 -0.520201 1
    endloop
  endfacet
  facet normal -0 0 1
    outer loop
      vertex 0.216311 -0.665739 1
      vertex 0.7 -0.7 1
      vertex 0.349999 -0.606217 1
    endloop
  endfacet
  facet normal 0 0 1
    outer loop
      vertex 0.7 -0.7 1
      vertex 0.216311 -0.665739 1
      vertex 0.7 -1.925 1
    endloop
  endfacet
  facet normal -0 0 1
    outer loop
      vertex 0.0731697 -0.696165 1
      vertex 0.7 -1.925 1
      vertex 0.216311 -0.665739 1
    endloop
  endfacet
  facet normal -0 0 1
    outer loop
      vertex -0.0731697 -0.696165 1
      vertex 0.7 -1.925 1
      vertex 0.0731697 -0.696165 1
    endloop
  endfacet
  facet normal 0 0 1
    outer loop
      vertex -0.7 -1.925 1
      vertex -0.0731697 -0.696165 1
      vertex -0.216311 -0.665739 1
    endloop
  endfacet
  facet normal 0 0 1
    outer loop
      vertex -0.7 -0.7 1
      vertex -0.216311 -0.665739 1
      vertex -0.349999 -0.606217 1
    endloop
  endfacet
  facet normal 0 0 1
    outer loop
      vertex -0.7 -0.7 1
      vertex -0.349999 -0.606217 1
      vertex -0.468391 -0.520201 1
    endloop
  endfacet
  facet normal 0 0 1
    outer loop
      vertex -0.7 -0.7 1
      vertex -0.468391 -0.520201 1
      vertex -0.566312 -0.411449 1
    endloop
  endfacet
  facet normal 0 0 1
    outer loop
      vertex -1.925 -0.7 1
      vertex -0.684703 -0.145537 1
      vertex -0.7 0 1
    endloop
  endfacet
  facet normal 0 0 1
    outer loop
      vertex -0.7 -0.7 1
      vertex -0.639482 -0.284715 1
      vertex -0.684703 -0.145537 1
    endloop
  endfacet
  facet normal 0 0 1
    outer loop
      vertex -0.7 -0.7 1
      vertex -0.566312 -0.411449 1
      vertex -0.639482 -0.284715 1
    endloop
  endfacet
  facet normal 0 0 1
    outer loop
      vertex -0.216311 -0.665739 1
      vertex -0.7 -0.7 1
      vertex -0.7 -1.925 1
    endloop
  endfacet
  facet normal 0 0 1
    outer loop
      vertex -0.0731697 -0.696165 1
      vertex -0.7 -1.925 1
      vertex 0.7 -1.925 1
    endloop
  endfacet
  facet normal 0 0 1
    outer loop
      vertex 0.216311 0.665739 1
      vertex 0.7 0.7 1
      vertex 0.7 1.925 1
    endloop
  endfacet
  facet normal 0 0 1
    outer loop
      vertex 1.925 0.7 1
      vertex 0.7 0 1
      vertex 1.925 -0.7 1
    endloop
  endfacet
  facet normal 0 0 1
    outer loop
      vertex 0.7 0.7 1
      vertex 0.639482 0.284715 1
      vertex 0.684703 0.145537 1
    endloop
  endfacet
  facet normal 0 0 1
    outer loop
      vertex 0.7 0.7 1
      vertex 0.566312 0.411449 1
      vertex 0.639482 0.284715 1
    endloop
  endfacet
  facet normal 0 0 1
    outer loop
      vertex 0.7 0.7 1
      vertex 0.468391 0.520201 1
      vertex 0.566312 0.411449 1
    endloop
  endfacet
  facet normal 0 0 1
    outer loop
      vertex 0.7 0.7 1
      vertex 0.349999 0.606217 1
      vertex 0.468391 0.520201 1
    endloop
  endfacet
  facet normal 0 0 1
    outer loop
      vertex 0.7 0.7 1
      vertex 0.216311 0.665739 1
      vertex 0.349999 0.606217 1
    endloop
  endfacet
  facet normal 0 0 1
    outer loop
      vertex 0.7 1.925 1
      vertex 0.0731697 0.696165 1
      vertex 0.216311 0.665739 1
    endloop
  endfacet
  facet normal 0 0 1
    outer loop
      vertex 0.7 1.925 1
      vertex -0.0731697 0.696165 1
      vertex 0.0731697 0.696165 1
    endloop
  endfacet
  facet normal -0 0 1
    outer loop
      vertex -0.7 1.925 1
      vertex -0.0731697 0.696165 1
      vertex 0.7 1.925 1
    endloop
  endfacet
  facet normal 0 0 1
    outer loop
      vertex -0.0731697 0.696165 1
      vertex -0.7 1.925 1
      vertex -0.216311 0.665739 1
    endloop
  endfacet
  facet normal -0 0 1
    outer loop
      vertex -0.7 0.7 1
      vertex -0.216311 0.665739 1
      vertex -0.7 1.925 1
    endloop
  endfacet
  facet normal 0 0 1
    outer loop
      vertex -0.216311 0.665739 1
      vertex -0.7 0.7 1
      vertex -0.349999 0.606217 1
    endloop
  endfacet
  facet normal 0 0 1
    outer loop
      vertex -0.349999 0.606217 1
      vertex -0.7 0.7 1
      vertex -0.468391 0.520201 1
    endloop
  endfacet
  facet normal 0 0 1
    outer loop
      vertex -0.468391 0.520201 1
      vertex -0.7 0.7 1
      vertex -0.566312 0.411449 1
    endloop
  endfacet
  facet normal 0 0 1
    outer loop
      vertex -0.566312 0.411449 1
      vertex -0.7 0.7 1
      vertex -0.639482 0.284715 1
    endloop
  endfacet
  facet normal 0 0 1
    outer loop
      vertex -0.639482 0.284715 1
      vertex -0.7 0.7 1
      vertex -0.684703 0.145537 1
    endloop
  endfacet
  facet normal -0 0 1
    outer loop
      vertex -1.925 0.7 1
      vertex -0.684703 0.145537 1
      vertex -0.7 0.7 1
    endloop
  endfacet
  facet normal 0 0 1
    outer loop
      vertex -0.684703 0.145537 1
      vertex -1.925 0.7 1
      vertex -0.7 0 1
    endloop
  endfacet
  facet normal 0 0 1
    outer loop
      vertex -1.925 -0.7 1
      vertex -0.7 0 1
      vertex -1.925 0.7 1
    endloop
  endfacet
  facet normal 0 0 1
    outer loop
      vertex -0.684703 -0.145537 1
      vertex -1.925 -0.7 1
      vertex -0.7 -0.7 1
    endloop
  endfacet
  facet normal 0 1 -0
    outer loop
      vertex 0.7 -1.925 1
      vertex -0.7 -1.925 3
      vertex 0.7 -1.925 3
    endloop
  endfacet
  facet normal 0 1 0
    outer loop
      vertex -0.7 -1.925 3
      vertex 0.7 -1.925 1
      vertex -0.7 -1.925 1
    endloop
  endfacet
  facet normal 1 -0 0
    outer loop
      vertex -1.925 -0.7 3
      vertex -1.925 0.7 1
      vertex -1.925 0.7 3
    endloop
  endfacet
  facet normal 1 0 0
    outer loop
      vertex -1.925 0.7 1
      vertex -1.925 -0.7 3
      vertex -1.925 -0.7 1
    endloop
  endfacet
  facet normal -1 0 0
    outer loop
      vertex 1.925 -0.7 1
      vertex 1.925 0.7 3
      vertex 1.925 0.7 1
    endloop
  endfacet
  facet normal -1 -0 0
    outer loop
      vertex 1.925 0.7 3
      vertex 1.925 -0.7 1
      vertex 1.925 -0.7 3
    endloop
  endfacet
  facet normal 0 -1 0
    outer loop
      vertex 0.7 0.7 1
      vertex 1.925 0.7 3
      vertex 0.7 0.7 3
    endloop
  endfacet
  facet normal 0 -1 -0
    outer loop
      vertex 1.925 0.7 3
      vertex 0.7 0.7 1
      vertex 1.925 0.7 1
    endloop
  endfacet
  facet normal 0 -1 0
    outer loop
      vertex -1.925 0.7 1
      vertex -0.7 0.7 3
      vertex -1.925 0.7 3
    endloop
  endfacet
  facet normal 0 -1 -0
    outer loop
      vertex -0.7 0.7 3
      vertex -1.925 0.7 1
      vertex -0.7 0.7 1
    endloop
  endfacet
  facet normal 0 1 -0
    outer loop
      vertex -0.7 -0.7 1
      vertex -1.925 -0.7 3
      vertex -0.7 -0.7 3
    endloop
  endfacet
  facet normal 0 1 0
    outer loop
      vertex -1.925 -0.7 3
      vertex -0.7 -0.7 1
      vertex -1.925 -0.7 1
    endloop
  endfacet
  facet normal 0 1 -0
    outer loop
      vertex 1.925 -0.7 1
      vertex 0.7 -0.7 3
      vertex 1.925 -0.7 3
    endloop
  endfacet
  facet normal 0 1 0
    outer loop
      vertex 0.7 -0.7 3
      vertex 1.925 -0.7 1
      vertex 0.7 -0.7 1
    endloop
  endfacet
  facet normal 0.999391 0.0349003 0
    outer loop
      vertex 6 0 3
      vertex 5.98538 0.418538 0
      vertex 5.98538 0.418538 3
    endloop
  endfacet
  facet normal 0.999391 0.0349003 0
    outer loop
      vertex 5.98538 0.418538 0
      vertex 6 0 3
      vertex 6 0 0
    endloop
  endfacet
  facet normal -0.999391 0.0349003 0
    outer loop
      vertex -6 0 0
      vertex -5.98538 0.418538 3
      vertex -5.98538 0.418538 0
    endloop
  endfacet
  facet normal -0.999391 0.0349003 0
    outer loop
      vertex -5.98538 0.418538 3
      vertex -6 0 0
      vertex -6 0 3
    endloop
  endfacet
  facet normal 0 1 -0
    outer loop
      vertex 0.209396 5.99634 0
      vertex -0.209396 5.99634 3
      vertex 0.209396 5.99634 3
    endloop
  endfacet
  facet normal 0 1 0
    outer loop
      vertex -0.209396 5.99634 3
      vertex 0.209396 5.99634 0
      vertex -0.209396 5.99634 0
    endloop
  endfacet
  facet normal 0.694658 0.71934 -0
    outer loop
      vertex 4.31604 4.16795 0
      vertex 4.01478 4.45887 3
      vertex 4.31604 4.16795 3
    endloop
  endfacet
  facet normal 0.694658 0.71934 0
    outer loop
      vertex 4.01478 4.45887 3
      vertex 4.31604 4.16795 0
      vertex 4.01478 4.45887 0
    endloop
  endfacet
  facet normal 0.927184 0.374605 0
    outer loop
      vertex 5.63815 2.05212 3
      vertex 5.48127 2.44042 0
      vertex 5.48127 2.44042 3
    endloop
  endfacet
  facet normal 0.927184 0.374605 0
    outer loop
      vertex 5.48127 2.44042 0
      vertex 5.63815 2.05212 3
      vertex 5.63815 2.05212 0
    endloop
  endfacet
  facet normal -0.829037 0.559193 0
    outer loop
      vertex -5.08829 3.17951 0
      vertex -4.8541 3.52671 3
      vertex -4.8541 3.52671 0
    endloop
  endfacet
  facet normal -0.829037 0.559193 0
    outer loop
      vertex -4.8541 3.52671 3
      vertex -5.08829 3.17951 0
      vertex -5.08829 3.17951 3
    endloop
  endfacet
  facet normal -0.78801 0.615663 0
    outer loop
      vertex -4.8541 3.52671 0
      vertex -4.59627 3.85672 3
      vertex -4.59627 3.85672 0
    endloop
  endfacet
  facet normal -0.78801 0.615663 0
    outer loop
      vertex -4.59627 3.85672 3
      vertex -4.8541 3.52671 0
      vertex -4.8541 3.52671 3
    endloop
  endfacet
  facet normal -0.642788 0.766044 0
    outer loop
      vertex -3.69397 4.72806 0
      vertex -4.01478 4.45887 3
      vertex -3.69397 4.72806 3
    endloop
  endfacet
  facet normal -0.642788 0.766044 0
    outer loop
      vertex -4.01478 4.45887 3
      vertex -3.69397 4.72806 0
      vertex -4.01478 4.45887 0
    endloop
  endfacet
  facet normal -0.342021 0.939692 0
    outer loop
      vertex -1.8541 5.70634 0
      vertex -2.24764 5.5631 3
      vertex -1.8541 5.70634 3
    endloop
  endfacet
  facet normal -0.342021 0.939692 0
    outer loop
      vertex -2.24764 5.5631 3
      vertex -1.8541 5.70634 0
      vertex -2.24764 5.5631 0
    endloop
  endfacet
  facet normal 0.984808 0.173647 0
    outer loop
      vertex 5.94161 0.835038 3
      vertex 5.86889 1.24747 0
      vertex 5.86889 1.24747 3
    endloop
  endfacet
  facet normal 0.984808 0.173647 0
    outer loop
      vertex 5.86889 1.24747 0
      vertex 5.94161 0.835038 3
      vertex 5.94161 0.835038 0
    endloop
  endfacet
  facet normal 0.994522 0.10453 0
    outer loop
      vertex 5.98538 0.418538 3
      vertex 5.94161 0.835038 0
      vertex 5.94161 0.835038 3
    endloop
  endfacet
  facet normal 0.994522 0.10453 0
    outer loop
      vertex 5.94161 0.835038 0
      vertex 5.98538 0.418538 3
      vertex 5.98538 0.418538 0
    endloop
  endfacet
  facet normal 0.970296 0.241922 0
    outer loop
      vertex 5.86889 1.24747 3
      vertex 5.76757 1.65382 0
      vertex 5.76757 1.65382 3
    endloop
  endfacet
  facet normal 0.970296 0.241922 0
    outer loop
      vertex 5.76757 1.65382 0
      vertex 5.86889 1.24747 3
      vertex 5.86889 1.24747 0
    endloop
  endfacet
  facet normal 0.829037 0.559193 0
    outer loop
      vertex 5.08829 3.17951 3
      vertex 4.8541 3.52671 0
      vertex 4.8541 3.52671 3
    endloop
  endfacet
  facet normal 0.829037 0.559193 0
    outer loop
      vertex 4.8541 3.52671 0
      vertex 5.08829 3.17951 3
      vertex 5.08829 3.17951 0
    endloop
  endfacet
  facet normal 0.743145 0.66913 0
    outer loop
      vertex 4.59627 3.85672 3
      vertex 4.31604 4.16795 0
      vertex 4.31604 4.16795 3
    endloop
  endfacet
  facet normal 0.743145 0.66913 0
    outer loop
      vertex 4.31604 4.16795 0
      vertex 4.59627 3.85672 3
      vertex 4.59627 3.85672 0
    endloop
  endfacet
  facet normal 0.866026 0.499999 0
    outer loop
      vertex 5.29768 2.81683 3
      vertex 5.08829 3.17951 0
      vertex 5.08829 3.17951 3
    endloop
  endfacet
  facet normal 0.866026 0.499999 0
    outer loop
      vertex 5.08829 3.17951 0
      vertex 5.29768 2.81683 3
      vertex 5.29768 2.81683 0
    endloop
  endfacet
  facet normal 0.207912 0.978147 -0
    outer loop
      vertex 1.45153 5.82177 0
      vertex 1.04189 5.90885 3
      vertex 1.45153 5.82177 3
    endloop
  endfacet
  facet normal 0.207912 0.978147 0
    outer loop
      vertex 1.04189 5.90885 3
      vertex 1.45153 5.82177 0
      vertex 1.04189 5.90885 0
    endloop
  endfacet
  facet normal 0.0697572 0.997564 -0
    outer loop
      vertex 0.627171 5.96713 0
      vertex 0.209396 5.99634 3
      vertex 0.627171 5.96713 3
    endloop
  endfacet
  facet normal 0.0697572 0.997564 0
    outer loop
      vertex 0.209396 5.99634 3
      vertex 0.627171 5.96713 0
      vertex 0.209396 5.99634 0
    endloop
  endfacet
  facet normal 0.642788 0.766044 -0
    outer loop
      vertex 4.01478 4.45887 0
      vertex 3.69397 4.72806 3
      vertex 4.01478 4.45887 3
    endloop
  endfacet
  facet normal 0.642788 0.766044 0
    outer loop
      vertex 3.69397 4.72806 3
      vertex 4.01478 4.45887 0
      vertex 3.69397 4.72806 0
    endloop
  endfacet
  facet normal -0.970296 0.241922 0
    outer loop
      vertex -5.86889 1.24747 0
      vertex -5.76757 1.65382 3
      vertex -5.76757 1.65382 0
    endloop
  endfacet
  facet normal -0.970296 0.241922 0
    outer loop
      vertex -5.76757 1.65382 3
      vertex -5.86889 1.24747 0
      vertex -5.86889 1.24747 3
    endloop
  endfacet
  facet normal -0.994522 0.10453 0
    outer loop
      vertex -5.98538 0.418538 0
      vertex -5.94161 0.835038 3
      vertex -5.94161 0.835038 0
    endloop
  endfacet
  facet normal -0.994522 0.10453 0
    outer loop
      vertex -5.94161 0.835038 3
      vertex -5.98538 0.418538 0
      vertex -5.98538 0.418538 3
    endloop
  endfacet
  facet normal -0.469473 0.882947 0
    outer loop
      vertex -2.63023 5.39276 0
      vertex -3 5.19615 3
      vertex -2.63023 5.39276 3
    endloop
  endfacet
  facet normal -0.469473 0.882947 0
    outer loop
      vertex -3 5.19615 3
      vertex -2.63023 5.39276 0
      vertex -3 5.19615 0
    endloop
  endfacet
  facet normal -0.529918 0.848049 0
    outer loop
      vertex -3 5.19615 0
      vertex -3.35516 4.97423 3
      vertex -3 5.19615 3
    endloop
  endfacet
  facet normal -0.529918 0.848049 0
    outer loop
      vertex -3.35516 4.97423 3
      vertex -3 5.19615 0
      vertex -3.35516 4.97423 0
    endloop
  endfacet
  facet normal -0.587786 0.809017 0
    outer loop
      vertex -3.35516 4.97423 0
      vertex -3.69397 4.72806 3
      vertex -3.35516 4.97423 3
    endloop
  endfacet
  facet normal -0.587786 0.809017 0
    outer loop
      vertex -3.69397 4.72806 3
      vertex -3.35516 4.97423 0
      vertex -3.69397 4.72806 0
    endloop
  endfacet
  facet normal -0.139173 0.990268 0
    outer loop
      vertex -0.627171 5.96713 0
      vertex -1.04189 5.90885 3
      vertex -0.627171 5.96713 3
    endloop
  endfacet
  facet normal -0.139173 0.990268 0
    outer loop
      vertex -1.04189 5.90885 3
      vertex -0.627171 5.96713 0
      vertex -1.04189 5.90885 0
    endloop
  endfacet
  facet normal -0.275636 0.961262 0
    outer loop
      vertex -1.45153 5.82177 0
      vertex -1.8541 5.70634 3
      vertex -1.45153 5.82177 3
    endloop
  endfacet
  facet normal -0.275636 0.961262 0
    outer loop
      vertex -1.8541 5.70634 3
      vertex -1.45153 5.82177 0
      vertex -1.8541 5.70634 0
    endloop
  endfacet
  facet normal -0.207912 0.978147 0
    outer loop
      vertex -1.04189 5.90885 0
      vertex -1.45153 5.82177 3
      vertex -1.04189 5.90885 3
    endloop
  endfacet
  facet normal -0.207912 0.978147 0
    outer loop
      vertex -1.45153 5.82177 3
      vertex -1.04189 5.90885 0
      vertex -1.45153 5.82177 0
    endloop
  endfacet
  facet normal 0.951056 -0.309017 0
    outer loop
      vertex 5.63815 -2.05212 3
      vertex 5.76757 -1.65382 0
      vertex 5.76757 -1.65382 3
    endloop
  endfacet
  facet normal 0.951056 -0.309017 0
    outer loop
      vertex 5.76757 -1.65382 0
      vertex 5.63815 -2.05212 3
      vertex 5.63815 -2.05212 0
    endloop
  endfacet
  facet normal 0.469472 -0.882947 0
    outer loop
      vertex 2.63023 -5.39276 0
      vertex 3 -5.19615 3
      vertex 2.63023 -5.39276 3
    endloop
  endfacet
  facet normal 0.469472 -0.882947 0
    outer loop
      vertex 3 -5.19615 3
      vertex 2.63023 -5.39276 0
      vertex 3 -5.19615 0
    endloop
  endfacet
  facet normal 0.927184 -0.374605 0
    outer loop
      vertex 5.48127 -2.44042 3
      vertex 5.63815 -2.05212 0
      vertex 5.63815 -2.05212 3
    endloop
  endfacet
  facet normal 0.927184 -0.374605 0
    outer loop
      vertex 5.63815 -2.05212 0
      vertex 5.48127 -2.44042 3
      vertex 5.48127 -2.44042 0
    endloop
  endfacet
  facet normal -0.78801 -0.615663 0
    outer loop
      vertex -4.59627 -3.85672 0
      vertex -4.8541 -3.52671 3
      vertex -4.8541 -3.52671 0
    endloop
  endfacet
  facet normal -0.78801 -0.615663 0
    outer loop
      vertex -4.8541 -3.52671 3
      vertex -4.59627 -3.85672 0
      vertex -4.59627 -3.85672 3
    endloop
  endfacet
  facet normal -0.927184 -0.374605 0
    outer loop
      vertex -5.48127 -2.44042 0
      vertex -5.63815 -2.05212 3
      vertex -5.63815 -2.05212 0
    endloop
  endfacet
  facet normal -0.927184 -0.374605 0
    outer loop
      vertex -5.63815 -2.05212 3
      vertex -5.48127 -2.44042 0
      vertex -5.48127 -2.44042 3
    endloop
  endfacet
  facet normal 0.342021 -0.939692 0
    outer loop
      vertex 1.8541 -5.70634 0
      vertex 2.24764 -5.5631 3
      vertex 1.8541 -5.70634 3
    endloop
  endfacet
  facet normal 0.342021 -0.939692 0
    outer loop
      vertex 2.24764 -5.5631 3
      vertex 1.8541 -5.70634 0
      vertex 2.24764 -5.5631 0
    endloop
  endfacet
  facet normal 0.951056 0.309017 0
    outer loop
      vertex 5.76757 1.65382 3
      vertex 5.63815 2.05212 0
      vertex 5.63815 2.05212 3
    endloop
  endfacet
  facet normal 0.951056 0.309017 0
    outer loop
      vertex 5.63815 2.05212 0
      vertex 5.76757 1.65382 3
      vertex 5.76757 1.65382 0
    endloop
  endfacet
  facet normal 0.898793 0.438373 0
    outer loop
      vertex 5.48127 2.44042 3
      vertex 5.29768 2.81683 0
      vertex 5.29768 2.81683 3
    endloop
  endfacet
  facet normal 0.898793 0.438373 0
    outer loop
      vertex 5.29768 2.81683 0
      vertex 5.48127 2.44042 3
      vertex 5.48127 2.44042 0
    endloop
  endfacet
  facet normal 0.275636 0.961262 -0
    outer loop
      vertex 1.8541 5.70634 0
      vertex 1.45153 5.82177 3
      vertex 1.8541 5.70634 3
    endloop
  endfacet
  facet normal 0.275636 0.961262 0
    outer loop
      vertex 1.45153 5.82177 3
      vertex 1.8541 5.70634 0
      vertex 1.45153 5.82177 0
    endloop
  endfacet
  facet normal 0.139173 0.990268 -0
    outer loop
      vertex 1.04189 5.90885 0
      vertex 0.627171 5.96713 3
      vertex 1.04189 5.90885 3
    endloop
  endfacet
  facet normal 0.139173 0.990268 0
    outer loop
      vertex 0.627171 5.96713 3
      vertex 1.04189 5.90885 0
      vertex 0.627171 5.96713 0
    endloop
  endfacet
  facet normal 0.342021 0.939692 -0
    outer loop
      vertex 2.24764 5.5631 0
      vertex 1.8541 5.70634 3
      vertex 2.24764 5.5631 3
    endloop
  endfacet
  facet normal 0.342021 0.939692 0
    outer loop
      vertex 1.8541 5.70634 3
      vertex 2.24764 5.5631 0
      vertex 1.8541 5.70634 0
    endloop
  endfacet
  facet normal 0.469472 0.882947 -0
    outer loop
      vertex 3 5.19615 0
      vertex 2.63023 5.39276 3
      vertex 3 5.19615 3
    endloop
  endfacet
  facet normal 0.469472 0.882947 0
    outer loop
      vertex 2.63023 5.39276 3
      vertex 3 5.19615 0
      vertex 2.63023 5.39276 0
    endloop
  endfacet
  facet normal 0.587786 0.809017 -0
    outer loop
      vertex 3.69397 4.72806 0
      vertex 3.35516 4.97423 3
      vertex 3.69397 4.72806 3
    endloop
  endfacet
  facet normal 0.587786 0.809017 0
    outer loop
      vertex 3.35516 4.97423 3
      vertex 3.69397 4.72806 0
      vertex 3.35516 4.97423 0
    endloop
  endfacet
  facet normal 0.529919 0.848048 -0
    outer loop
      vertex 3.35516 4.97423 0
      vertex 3 5.19615 3
      vertex 3.35516 4.97423 3
    endloop
  endfacet
  facet normal 0.529919 0.848048 0
    outer loop
      vertex 3 5.19615 3
      vertex 3.35516 4.97423 0
      vertex 3 5.19615 0
    endloop
  endfacet
  facet normal -0.743145 0.66913 0
    outer loop
      vertex -4.59627 3.85672 0
      vertex -4.31604 4.16795 3
      vertex -4.31604 4.16795 0
    endloop
  endfacet
  facet normal -0.743145 0.66913 0
    outer loop
      vertex -4.31604 4.16795 3
      vertex -4.59627 3.85672 0
      vertex -4.59627 3.85672 3
    endloop
  endfacet
  facet normal -0.898793 0.438373 0
    outer loop
      vertex -5.48127 2.44042 0
      vertex -5.29768 2.81683 3
      vertex -5.29768 2.81683 0
    endloop
  endfacet
  facet normal -0.898793 0.438373 0
    outer loop
      vertex -5.29768 2.81683 3
      vertex -5.48127 2.44042 0
      vertex -5.48127 2.44042 3
    endloop
  endfacet
  facet normal -0.927184 0.374605 0
    outer loop
      vertex -5.63815 2.05212 0
      vertex -5.48127 2.44042 3
      vertex -5.48127 2.44042 0
    endloop
  endfacet
  facet normal -0.927184 0.374605 0
    outer loop
      vertex -5.48127 2.44042 3
      vertex -5.63815 2.05212 0
      vertex -5.63815 2.05212 3
    endloop
  endfacet
  facet normal -0.951056 0.309017 0
    outer loop
      vertex -5.76757 1.65382 0
      vertex -5.63815 2.05212 3
      vertex -5.63815 2.05212 0
    endloop
  endfacet
  facet normal -0.951056 0.309017 0
    outer loop
      vertex -5.63815 2.05212 3
      vertex -5.76757 1.65382 0
      vertex -5.76757 1.65382 3
    endloop
  endfacet
  facet normal -0.984808 0.173647 0
    outer loop
      vertex -5.94161 0.835038 0
      vertex -5.86889 1.24747 3
      vertex -5.86889 1.24747 0
    endloop
  endfacet
  facet normal -0.984808 0.173647 0
    outer loop
      vertex -5.86889 1.24747 3
      vertex -5.94161 0.835038 0
      vertex -5.94161 0.835038 3
    endloop
  endfacet
  facet normal -0.694658 0.71934 0
    outer loop
      vertex -4.01478 4.45887 0
      vertex -4.31604 4.16795 3
      vertex -4.01478 4.45887 3
    endloop
  endfacet
  facet normal -0.694658 0.71934 0
    outer loop
      vertex -4.31604 4.16795 3
      vertex -4.01478 4.45887 0
      vertex -4.31604 4.16795 0
    endloop
  endfacet
  facet normal -0.406736 0.913546 0
    outer loop
      vertex -2.24764 5.5631 0
      vertex -2.63023 5.39276 3
      vertex -2.24764 5.5631 3
    endloop
  endfacet
  facet normal -0.406736 0.913546 0
    outer loop
      vertex -2.63023 5.39276 3
      vertex -2.24764 5.5631 0
      vertex -2.63023 5.39276 0
    endloop
  endfacet
  facet normal -0.0697572 0.997564 0
    outer loop
      vertex -0.209396 5.99634 0
      vertex -0.627171 5.96713 3
      vertex -0.209396 5.99634 3
    endloop
  endfacet
  facet normal -0.0697572 0.997564 0
    outer loop
      vertex -0.627171 5.96713 3
      vertex -0.209396 5.99634 0
      vertex -0.627171 5.96713 0
    endloop
  endfacet
  facet normal 0.984808 -0.173647 0
    outer loop
      vertex 5.86889 -1.24747 3
      vertex 5.94161 -0.835038 0
      vertex 5.94161 -0.835038 3
    endloop
  endfacet
  facet normal 0.984808 -0.173647 0
    outer loop
      vertex 5.94161 -0.835038 0
      vertex 5.86889 -1.24747 3
      vertex 5.86889 -1.24747 0
    endloop
  endfacet
  facet normal 0 -1 0
    outer loop
      vertex -0.209396 -5.99634 0
      vertex 0.209396 -5.99634 3
      vertex -0.209396 -5.99634 3
    endloop
  endfacet
  facet normal 0 -1 -0
    outer loop
      vertex 0.209396 -5.99634 3
      vertex -0.209396 -5.99634 0
      vertex 0.209396 -5.99634 0
    endloop
  endfacet
  facet normal -0.406736 -0.913546 0
    outer loop
      vertex -2.63023 -5.39276 0
      vertex -2.24764 -5.5631 3
      vertex -2.63023 -5.39276 3
    endloop
  endfacet
  facet normal -0.406736 -0.913546 -0
    outer loop
      vertex -2.24764 -5.5631 3
      vertex -2.63023 -5.39276 0
      vertex -2.24764 -5.5631 0
    endloop
  endfacet
  facet normal -0.743145 -0.66913 0
    outer loop
      vertex -4.31604 -4.16795 0
      vertex -4.59627 -3.85672 3
      vertex -4.59627 -3.85672 0
    endloop
  endfacet
  facet normal -0.743145 -0.66913 0
    outer loop
      vertex -4.59627 -3.85672 3
      vertex -4.31604 -4.16795 0
      vertex -4.31604 -4.16795 3
    endloop
  endfacet
  facet normal -0.970296 -0.241922 0
    outer loop
      vertex -5.76757 -1.65382 0
      vertex -5.86889 -1.24747 3
      vertex -5.86889 -1.24747 0
    endloop
  endfacet
  facet normal -0.970296 -0.241922 0
    outer loop
      vertex -5.86889 -1.24747 3
      vertex -5.76757 -1.65382 0
      vertex -5.76757 -1.65382 3
    endloop
  endfacet
  facet normal -0.999391 -0.0349003 0
    outer loop
      vertex -5.98538 -0.418538 0
      vertex -6 0 3
      vertex -6 0 0
    endloop
  endfacet
  facet normal -0.999391 -0.0349003 0
    outer loop
      vertex -6 0 3
      vertex -5.98538 -0.418538 0
      vertex -5.98538 -0.418538 3
    endloop
  endfacet
  facet normal 0 0 -1
    outer loop
      vertex 0.7 0 0
      vertex 6 0 0
      vertex 5.98538 -0.418538 0
    endloop
  endfacet
  facet normal 0 0 -1
    outer loop
      vertex 0.7 0 0
      vertex 5.98538 -0.418538 0
      vertex 5.94161 -0.835038 0
    endloop
  endfacet
  facet normal 0 0 -1
    outer loop
      vertex 6 0 0
      vertex 0.7 0 0
      vertex 5.98538 0.418538 0
    endloop
  endfacet
  facet normal 0 0 -1
    outer loop
      vertex 0.684703 -0.145537 0
      vertex 5.94161 -0.835038 0
      vertex 5.86889 -1.24747 0
    endloop
  endfacet
  facet normal -0 0 -1
    outer loop
      vertex 5.98538 0.418538 0
      vertex 0.7 0 0
      vertex 5.94161 0.835038 0
    endloop
  endfacet
  facet normal 0 0 -1
    outer loop
      vertex 0.684703 -0.145537 0
      vertex 5.86889 -1.24747 0
      vertex 5.76757 -1.65382 0
    endloop
  endfacet
  facet normal 0 0 -1
    outer loop
      vertex 0.684703 0.145537 0
      vertex 5.94161 0.835038 0
      vertex 0.7 0 0
    endloop
  endfacet
  facet normal 0 0 -1
    outer loop
      vertex 0.684703 -0.145537 0
      vertex 5.76757 -1.65382 0
      vertex 5.63815 -2.05212 0
    endloop
  endfacet
  facet normal -0 0 -1
    outer loop
      vertex 5.94161 0.835038 0
      vertex 0.684703 0.145537 0
      vertex 5.86889 1.24747 0
    endloop
  endfacet
  facet normal 0 0 -1
    outer loop
      vertex 0.639482 -0.284715 0
      vertex 5.63815 -2.05212 0
      vertex 5.48127 -2.44042 0
    endloop
  endfacet
  facet normal -0 0 -1
    outer loop
      vertex 5.86889 1.24747 0
      vertex 0.684703 0.145537 0
      vertex 5.76757 1.65382 0
    endloop
  endfacet
  facet normal 0 0 -1
    outer loop
      vertex 0.639482 -0.284715 0
      vertex 5.48127 -2.44042 0
      vertex 5.29768 -2.81683 0
    endloop
  endfacet
  facet normal -0 0 -1
    outer loop
      vertex 5.76757 1.65382 0
      vertex 0.684703 0.145537 0
      vertex 5.63815 2.05212 0
    endloop
  endfacet
  facet normal 0 0 -1
    outer loop
      vertex 0.639482 -0.284715 0
      vertex 5.29768 -2.81683 0
      vertex 5.08829 -3.17951 0
    endloop
  endfacet
  facet normal 0 0 -1
    outer loop
      vertex 0.639482 0.284715 0
      vertex 5.63815 2.05212 0
      vertex 0.684703 0.145537 0
    endloop
  endfacet
  facet normal 0 0 -1
    outer loop
      vertex 0.566312 -0.411449 0
      vertex 5.08829 -3.17951 0
      vertex 4.8541 -3.52671 0
    endloop
  endfacet
  facet normal -0 0 -1
    outer loop
      vertex 5.63815 2.05212 0
      vertex 0.639482 0.284715 0
      vertex 5.48127 2.44042 0
    endloop
  endfacet
  facet normal 0 0 -1
    outer loop
      vertex 0.566312 -0.411449 0
      vertex 4.8541 -3.52671 0
      vertex 4.59627 -3.85672 0
    endloop
  endfacet
  facet normal -0 0 -1
    outer loop
      vertex 5.48127 2.44042 0
      vertex 0.639482 0.284715 0
      vertex 5.29768 2.81683 0
    endloop
  endfacet
  facet normal 0 0 -1
    outer loop
      vertex 0.566312 -0.411449 0
      vertex 4.59627 -3.85672 0
      vertex 4.31604 -4.16795 0
    endloop
  endfacet
  facet normal -0 0 -1
    outer loop
      vertex 5.29768 2.81683 0
      vertex 0.639482 0.284715 0
      vertex 5.08829 3.17951 0
    endloop
  endfacet
  facet normal 0 0 -1
    outer loop
      vertex 0.468391 -0.520201 0
      vertex 4.31604 -4.16795 0
      vertex 4.01478 -4.45887 0
    endloop
  endfacet
  facet normal 0 0 -1
    outer loop
      vertex 0.566312 0.411449 0
      vertex 5.08829 3.17951 0
      vertex 0.639482 0.284715 0
    endloop
  endfacet
  facet normal 0 0 -1
    outer loop
      vertex 0.468391 -0.520201 0
      vertex 4.01478 -4.45887 0
      vertex 3.69397 -4.72806 0
    endloop
  endfacet
  facet normal -0 0 -1
    outer loop
      vertex 5.08829 3.17951 0
      vertex 0.566312 0.411449 0
      vertex 4.8541 3.52671 0
    endloop
  endfacet
  facet normal 0 0 -1
    outer loop
      vertex 0.468391 -0.520201 0
      vertex 3.69397 -4.72806 0
      vertex 3.35516 -4.97423 0
    endloop
  endfacet
  facet normal -0 0 -1
    outer loop
      vertex 4.8541 3.52671 0
      vertex 0.566312 0.411449 0
      vertex 4.59627 3.85672 0
    endloop
  endfacet
  facet normal 0 0 -1
    outer loop
      vertex 0.349999 -0.606217 0
      vertex 3.35516 -4.97423 0
      vertex 3 -5.19615 0
    endloop
  endfacet
  facet normal -0 0 -1
    outer loop
      vertex 4.59627 3.85672 0
      vertex 0.566312 0.411449 0
      vertex 4.31604 4.16795 0
    endloop
  endfacet
  facet normal 0 0 -1
    outer loop
      vertex 0.349999 -0.606217 0
      vertex 3 -5.19615 0
      vertex 2.63023 -5.39276 0
    endloop
  endfacet
  facet normal 0 0 -1
    outer loop
      vertex 0.468391 0.520201 0
      vertex 4.31604 4.16795 0
      vertex 0.566312 0.411449 0
    endloop
  endfacet
  facet normal 0 0 -1
    outer loop
      vertex 0.349999 -0.606217 0
      vertex 2.63023 -5.39276 0
      vertex 2.24764 -5.5631 0
    endloop
  endfacet
  facet normal -0 0 -1
    outer loop
      vertex 4.31604 4.16795 0
      vertex 0.468391 0.520201 0
      vertex 4.01478 4.45887 0
    endloop
  endfacet
  facet normal 0 0 -1
    outer loop
      vertex 0.216311 -0.665739 0
      vertex 2.24764 -5.5631 0
      vertex 1.8541 -5.70634 0
    endloop
  endfacet
  facet normal -0 0 -1
    outer loop
      vertex 4.01478 4.45887 0
      vertex 0.468391 0.520201 0
      vertex 3.69397 4.72806 0
    endloop
  endfacet
  facet normal 0 0 -1
    outer loop
      vertex 0.216311 -0.665739 0
      vertex 1.8541 -5.70634 0
      vertex 1.45153 -5.82177 0
    endloop
  endfacet
  facet normal -0 0 -1
    outer loop
      vertex 3.69397 4.72806 0
      vertex 0.468391 0.520201 0
      vertex 3.35516 4.97423 0
    endloop
  endfacet
  facet normal 0 0 -1
    outer loop
      vertex 0.216311 -0.665739 0
      vertex 1.45153 -5.82177 0
      vertex 1.04189 -5.90885 0
    endloop
  endfacet
  facet normal 0 0 -1
    outer loop
      vertex 0.349999 0.606217 0
      vertex 3.35516 4.97423 0
      vertex 0.468391 0.520201 0
    endloop
  endfacet
  facet normal -0 0 -1
    outer loop
      vertex 3.35516 4.97423 0
      vertex 0.349999 0.606217 0
      vertex 3 5.19615 0
    endloop
  endfacet
  facet normal 0 0 -1
    outer loop
      vertex 5.94161 -0.835038 0
      vertex 0.684703 -0.145537 0
      vertex 0.7 0 0
    endloop
  endfacet
  facet normal 0 0 -1
    outer loop
      vertex 5.63815 -2.05212 0
      vertex 0.639482 -0.284715 0
      vertex 0.684703 -0.145537 0
    endloop
  endfacet
  facet normal 0 0 -1
    outer loop
      vertex 0.0731697 -0.696165 0
      vertex 1.04189 -5.90885 0
      vertex 0.627171 -5.96713 0
    endloop
  endfacet
  facet normal 0 0 -1
    outer loop
      vertex 5.08829 -3.17951 0
      vertex 0.566312 -0.411449 0
      vertex 0.639482 -0.284715 0
    endloop
  endfacet
  facet normal 0 0 -1
    outer loop
      vertex 4.31604 -4.16795 0
      vertex 0.468391 -0.520201 0
      vertex 0.566312 -0.411449 0
    endloop
  endfacet
  facet normal 0 0 -1
    outer loop
      vertex 3.35516 -4.97423 0
      vertex 0.349999 -0.606217 0
      vertex 0.468391 -0.520201 0
    endloop
  endfacet
  facet normal 0 0 -1
    outer loop
      vertex 2.24764 -5.5631 0
      vertex 0.216311 -0.665739 0
      vertex 0.349999 -0.606217 0
    endloop
  endfacet
  facet normal 0 0 -1
    outer loop
      vertex 0.0731697 -0.696165 0
      vertex 0.627171 -5.96713 0
      vertex 0.209396 -5.99634 0
    endloop
  endfacet
  facet normal 0 0 -1
    outer loop
      vertex 1.04189 -5.90885 0
      vertex 0.0731697 -0.696165 0
      vertex 0.216311 -0.665739 0
    endloop
  endfacet
  facet normal 0 0 -1
    outer loop
      vertex 0.209396 -5.99634 0
      vertex -0.0731697 -0.696165 0
      vertex 0.0731697 -0.696165 0
    endloop
  endfacet
  facet normal 0 0 -1
    outer loop
      vertex -0.209396 -5.99634 0
      vertex -0.0731697 -0.696165 0
      vertex 0.209396 -5.99634 0
    endloop
  endfacet
  facet normal 0 0 -1
    outer loop
      vertex -0.627171 -5.96713 0
      vertex -0.0731697 -0.696165 0
      vertex -0.209396 -5.99634 0
    endloop
  endfacet
  facet normal 0 0 -1
    outer loop
      vertex -1.04189 -5.90885 0
      vertex -0.0731697 -0.696165 0
      vertex -0.627171 -5.96713 0
    endloop
  endfacet
  facet normal -0 0 -1
    outer loop
      vertex -0.0731697 -0.696165 0
      vertex -1.04189 -5.90885 0
      vertex -0.216311 -0.665739 0
    endloop
  endfacet
  facet normal 0 0 -1
    outer loop
      vertex -1.45153 -5.82177 0
      vertex -0.216311 -0.665739 0
      vertex -1.04189 -5.90885 0
    endloop
  endfacet
  facet normal 0 0 -1
    outer loop
      vertex -1.8541 -5.70634 0
      vertex -0.216311 -0.665739 0
      vertex -1.45153 -5.82177 0
    endloop
  endfacet
  facet normal 0 0 -1
    outer loop
      vertex -2.24764 -5.5631 0
      vertex -0.216311 -0.665739 0
      vertex -1.8541 -5.70634 0
    endloop
  endfacet
  facet normal -0 0 -1
    outer loop
      vertex -0.216311 -0.665739 0
      vertex -2.24764 -5.5631 0
      vertex -0.349999 -0.606217 0
    endloop
  endfacet
  facet normal 0 0 -1
    outer loop
      vertex -2.63023 -5.39276 0
      vertex -0.349999 -0.606217 0
      vertex -2.24764 -5.5631 0
    endloop
  endfacet
  facet normal 0 0 -1
    outer loop
      vertex -3 -5.19615 0
      vertex -0.349999 -0.606217 0
      vertex -2.63023 -5.39276 0
    endloop
  endfacet
  facet normal -0 0 -1
    outer loop
      vertex 3 5.19615 0
      vertex 0.349999 0.606217 0
      vertex 2.63023 5.39276 0
    endloop
  endfacet
  facet normal -0 0 -1
    outer loop
      vertex 2.63023 5.39276 0
      vertex 0.349999 0.606217 0
      vertex 2.24764 5.5631 0
    endloop
  endfacet
  facet normal 0 0 -1
    outer loop
      vertex 0.216311 0.665739 0
      vertex 2.24764 5.5631 0
      vertex 0.349999 0.606217 0
    endloop
  endfacet
  facet normal -0 0 -1
    outer loop
      vertex 2.24764 5.5631 0
      vertex 0.216311 0.665739 0
      vertex 1.8541 5.70634 0
    endloop
  endfacet
  facet normal -0 0 -1
    outer loop
      vertex 1.8541 5.70634 0
      vertex 0.216311 0.665739 0
      vertex 1.45153 5.82177 0
    endloop
  endfacet
  facet normal -0 0 -1
    outer loop
      vertex 1.45153 5.82177 0
      vertex 0.216311 0.665739 0
      vertex 1.04189 5.90885 0
    endloop
  endfacet
  facet normal 0 0 -1
    outer loop
      vertex 0.0731697 0.696165 0
      vertex 1.04189 5.90885 0
      vertex 0.216311 0.665739 0
    endloop
  endfacet
  facet normal -0 0 -1
    outer loop
      vertex 1.04189 5.90885 0
      vertex 0.0731697 0.696165 0
      vertex 0.627171 5.96713 0
    endloop
  endfacet
  facet normal -0 0 -1
    outer loop
      vertex 0.627171 5.96713 0
      vertex 0.0731697 0.696165 0
      vertex 0.209396 5.99634 0
    endloop
  endfacet
  facet normal 0 0 -1
    outer loop
      vertex -0.0731697 0.696165 0
      vertex 0.209396 5.99634 0
      vertex 0.0731697 0.696165 0
    endloop
  endfacet
  facet normal 0 0 -1
    outer loop
      vertex -0.0731697 0.696165 0
      vertex -0.209396 5.99634 0
      vertex 0.209396 5.99634 0
    endloop
  endfacet
  facet normal 0 0 -1
    outer loop
      vertex -1.04189 5.90885 0
      vertex -0.0731697 0.696165 0
      vertex -0.216311 0.665739 0
    endloop
  endfacet
  facet normal 0 0 -1
    outer loop
      vertex -2.24764 5.5631 0
      vertex -0.216311 0.665739 0
      vertex -0.349999 0.606217 0
    endloop
  endfacet
  facet normal 0 0 -1
    outer loop
      vertex -3.35516 4.97423 0
      vertex -0.349999 0.606217 0
      vertex -0.468391 0.520201 0
    endloop
  endfacet
  facet normal 0 0 -1
    outer loop
      vertex -4.31604 4.16795 0
      vertex -0.468391 0.520201 0
      vertex -0.566312 0.411449 0
    endloop
  endfacet
  facet normal 0 0 -1
    outer loop
      vertex -0.0731697 0.696165 0
      vertex -0.627171 5.96713 0
      vertex -0.209396 5.99634 0
    endloop
  endfacet
  facet normal 0 0 -1
    outer loop
      vertex -5.08829 3.17951 0
      vertex -0.566312 0.411449 0
      vertex -0.639482 0.284715 0
    endloop
  endfacet
  facet normal 0 0 -1
    outer loop
      vertex -5.63815 2.05212 0
      vertex -0.639482 0.284715 0
      vertex -0.684703 0.145537 0
    endloop
  endfacet
  facet normal 0 0 -1
    outer loop
      vertex -5.94161 0.835038 0
      vertex -0.684703 0.145537 0
      vertex -0.7 0 0
    endloop
  endfacet
  facet normal 0 0 -1
    outer loop
      vertex -3.35516 -4.97423 0
      vertex -0.349999 -0.606217 0
      vertex -3 -5.19615 0
    endloop
  endfacet
  facet normal 0 0 -1
    outer loop
      vertex -0.0731697 0.696165 0
      vertex -1.04189 5.90885 0
      vertex -0.627171 5.96713 0
    endloop
  endfacet
  facet normal -0 0 -1
    outer loop
      vertex -0.349999 -0.606217 0
      vertex -3.35516 -4.97423 0
      vertex -0.468391 -0.520201 0
    endloop
  endfacet
  facet normal 0 0 -1
    outer loop
      vertex -0.216311 0.665739 0
      vertex -1.45153 5.82177 0
      vertex -1.04189 5.90885 0
    endloop
  endfacet
  facet normal 0 0 -1
    outer loop
      vertex -3.69397 -4.72806 0
      vertex -0.468391 -0.520201 0
      vertex -3.35516 -4.97423 0
    endloop
  endfacet
  facet normal 0 0 -1
    outer loop
      vertex -0.216311 0.665739 0
      vertex -1.8541 5.70634 0
      vertex -1.45153 5.82177 0
    endloop
  endfacet
  facet normal 0 0 -1
    outer loop
      vertex -4.01478 -4.45887 0
      vertex -0.468391 -0.520201 0
      vertex -3.69397 -4.72806 0
    endloop
  endfacet
  facet normal 0 0 -1
    outer loop
      vertex -0.216311 0.665739 0
      vertex -2.24764 5.5631 0
      vertex -1.8541 5.70634 0
    endloop
  endfacet
  facet normal 0 0 -1
    outer loop
      vertex -4.31604 -4.16795 0
      vertex -0.468391 -0.520201 0
      vertex -4.01478 -4.45887 0
    endloop
  endfacet
  facet normal 0 0 -1
    outer loop
      vertex -0.349999 0.606217 0
      vertex -2.63023 5.39276 0
      vertex -2.24764 5.5631 0
    endloop
  endfacet
  facet normal 0 0 -1
    outer loop
      vertex -0.349999 0.606217 0
      vertex -3 5.19615 0
      vertex -2.63023 5.39276 0
    endloop
  endfacet
  facet normal -0 0 -1
    outer loop
      vertex -0.468391 -0.520201 0
      vertex -4.31604 -4.16795 0
      vertex -0.566312 -0.411449 0
    endloop
  endfacet
  facet normal 0 0 -1
    outer loop
      vertex -4.59627 -3.85672 0
      vertex -0.566312 -0.411449 0
      vertex -4.31604 -4.16795 0
    endloop
  endfacet
  facet normal 0 0 -1
    outer loop
      vertex -0.349999 0.606217 0
      vertex -3.35516 4.97423 0
      vertex -3 5.19615 0
    endloop
  endfacet
  facet normal 0 0 -1
    outer loop
      vertex -4.8541 -3.52671 0
      vertex -0.566312 -0.411449 0
      vertex -4.59627 -3.85672 0
    endloop
  endfacet
  facet normal 0 0 -1
    outer loop
      vertex -0.468391 0.520201 0
      vertex -3.69397 4.72806 0
      vertex -3.35516 4.97423 0
    endloop
  endfacet
  facet normal 0 0 -1
    outer loop
      vertex -5.08829 -3.17951 0
      vertex -0.566312 -0.411449 0
      vertex -4.8541 -3.52671 0
    endloop
  endfacet
  facet normal 0 0 -1
    outer loop
      vertex -0.468391 0.520201 0
      vertex -4.01478 4.45887 0
      vertex -3.69397 4.72806 0
    endloop
  endfacet
  facet normal -0 0 -1
    outer loop
      vertex -0.566312 -0.411449 0
      vertex -5.08829 -3.17951 0
      vertex -0.639482 -0.284715 0
    endloop
  endfacet
  facet normal 0 0 -1
    outer loop
      vertex -0.468391 0.520201 0
      vertex -4.31604 4.16795 0
      vertex -4.01478 4.45887 0
    endloop
  endfacet
  facet normal 0 0 -1
    outer loop
      vertex -5.29768 -2.81683 0
      vertex -0.639482 -0.284715 0
      vertex -5.08829 -3.17951 0
    endloop
  endfacet
  facet normal 0 0 -1
    outer loop
      vertex -0.566312 0.411449 0
      vertex -4.59627 3.85672 0
      vertex -4.31604 4.16795 0
    endloop
  endfacet
  facet normal 0 0 -1
    outer loop
      vertex -5.48127 -2.44042 0
      vertex -0.639482 -0.284715 0
      vertex -5.29768 -2.81683 0
    endloop
  endfacet
  facet normal 0 0 -1
    outer loop
      vertex -0.566312 0.411449 0
      vertex -4.8541 3.52671 0
      vertex -4.59627 3.85672 0
    endloop
  endfacet
  facet normal 0 0 -1
    outer loop
      vertex -5.63815 -2.05212 0
      vertex -0.639482 -0.284715 0
      vertex -5.48127 -2.44042 0
    endloop
  endfacet
  facet normal 0 0 -1
    outer loop
      vertex -0.566312 0.411449 0
      vertex -5.08829 3.17951 0
      vertex -4.8541 3.52671 0
    endloop
  endfacet
  facet normal -0 0 -1
    outer loop
      vertex -0.639482 -0.284715 0
      vertex -5.63815 -2.05212 0
      vertex -0.684703 -0.145537 0
    endloop
  endfacet
  facet normal 0 0 -1
    outer loop
      vertex -0.639482 0.284715 0
      vertex -5.29768 2.81683 0
      vertex -5.08829 3.17951 0
    endloop
  endfacet
  facet normal 0 0 -1
    outer loop
      vertex -5.76757 -1.65382 0
      vertex -0.684703 -0.145537 0
      vertex -5.63815 -2.05212 0
    endloop
  endfacet
  facet normal 0 0 -1
    outer loop
      vertex -0.639482 0.284715 0
      vertex -5.48127 2.44042 0
      vertex -5.29768 2.81683 0
    endloop
  endfacet
  facet normal 0 0 -1
    outer loop
      vertex -5.86889 -1.24747 0
      vertex -0.684703 -0.145537 0
      vertex -5.76757 -1.65382 0
    endloop
  endfacet
  facet normal 0 0 -1
    outer loop
      vertex -0.639482 0.284715 0
      vertex -5.63815 2.05212 0
      vertex -5.48127 2.44042 0
    endloop
  endfacet
  facet normal 0 0 -1
    outer loop
      vertex -5.94161 -0.835038 0
      vertex -0.684703 -0.145537 0
      vertex -5.86889 -1.24747 0
    endloop
  endfacet
  facet normal 0 0 -1
    outer loop
      vertex -0.684703 0.145537 0
      vertex -5.76757 1.65382 0
      vertex -5.63815 2.05212 0
    endloop
  endfacet
  facet normal -0 0 -1
    outer loop
      vertex -0.684703 -0.145537 0
      vertex -5.94161 -0.835038 0
      vertex -0.7 0 0
    endloop
  endfacet
  facet normal 0 0 -1
    outer loop
      vertex -0.684703 0.145537 0
      vertex -5.86889 1.24747 0
      vertex -5.76757 1.65382 0
    endloop
  endfacet
  facet normal 0 0 -1
    outer loop
      vertex -5.98538 -0.418538 0
      vertex -0.7 0 0
      vertex -5.94161 -0.835038 0
    endloop
  endfacet
  facet normal 0 0 -1
    outer loop
      vertex -0.684703 0.145537 0
      vertex -5.94161 0.835038 0
      vertex -5.86889 1.24747 0
    endloop
  endfacet
  facet normal 0 0 -1
    outer loop
      vertex -6 0 0
      vertex -0.7 0 0
      vertex -5.98538 -0.418538 0
    endloop
  endfacet
  facet normal 0 0 -1
    outer loop
      vertex -0.7 0 0
      vertex -5.98538 0.418538 0
      vertex -5.94161 0.835038 0
    endloop
  endfacet
  facet normal 0 0 -1
    outer loop
      vertex -0.7 0 0
      vertex -6 0 0
      vertex -5.98538 0.418538 0
    endloop
  endfacet
  facet normal 0.78801 0.615663 0
    outer loop
      vertex 4.8541 3.52671 3
      vertex 4.59627 3.85672 0
      vertex 4.59627 3.85672 3
    endloop
  endfacet
  facet normal 0.78801 0.615663 0
    outer loop
      vertex 4.59627 3.85672 0
      vertex 4.8541 3.52671 3
      vertex 4.8541 3.52671 0
    endloop
  endfacet
  facet normal 0.406736 0.913546 -0
    outer loop
      vertex 2.63023 5.39276 0
      vertex 2.24764 5.5631 3
      vertex 2.63023 5.39276 3
    endloop
  endfacet
  facet normal 0.406736 0.913546 0
    outer loop
      vertex 2.24764 5.5631 3
      vertex 2.63023 5.39276 0
      vertex 2.24764 5.5631 0
    endloop
  endfacet
  facet normal -0.866026 0.499999 0
    outer loop
      vertex -5.29768 2.81683 0
      vertex -5.08829 3.17951 3
      vertex -5.08829 3.17951 0
    endloop
  endfacet
  facet normal -0.866026 0.499999 0
    outer loop
      vertex -5.08829 3.17951 3
      vertex -5.29768 2.81683 0
      vertex -5.29768 2.81683 3
    endloop
  endfacet
  facet normal 0.999391 -0.0349003 0
    outer loop
      vertex 5.98538 -0.418538 3
      vertex 6 0 0
      vertex 6 0 3
    endloop
  endfacet
  facet normal 0.999391 -0.0349003 0
    outer loop
      vertex 6 0 0
      vertex 5.98538 -0.418538 3
      vertex 5.98538 -0.418538 0
    endloop
  endfacet
  facet normal 0.866026 -0.499999 0
    outer loop
      vertex 5.08829 -3.17951 3
      vertex 5.29768 -2.81683 0
      vertex 5.29768 -2.81683 3
    endloop
  endfacet
  facet normal 0.866026 -0.499999 0
    outer loop
      vertex 5.29768 -2.81683 0
      vertex 5.08829 -3.17951 3
      vertex 5.08829 -3.17951 0
    endloop
  endfacet
  facet normal 0.743145 -0.66913 0
    outer loop
      vertex 4.31604 -4.16795 3
      vertex 4.59627 -3.85672 0
      vertex 4.59627 -3.85672 3
    endloop
  endfacet
  facet normal 0.743145 -0.66913 0
    outer loop
      vertex 4.59627 -3.85672 0
      vertex 4.31604 -4.16795 3
      vertex 4.31604 -4.16795 0
    endloop
  endfacet
  facet normal 0.587786 -0.809017 0
    outer loop
      vertex 3.35516 -4.97423 0
      vertex 3.69397 -4.72806 3
      vertex 3.35516 -4.97423 3
    endloop
  endfacet
  facet normal 0.587786 -0.809017 0
    outer loop
      vertex 3.69397 -4.72806 3
      vertex 3.35516 -4.97423 0
      vertex 3.69397 -4.72806 0
    endloop
  endfacet
  facet normal -0.342021 -0.939692 0
    outer loop
      vertex -2.24764 -5.5631 0
      vertex -1.8541 -5.70634 3
      vertex -2.24764 -5.5631 3
    endloop
  endfacet
  facet normal -0.342021 -0.939692 -0
    outer loop
      vertex -1.8541 -5.70634 3
      vertex -2.24764 -5.5631 0
      vertex -1.8541 -5.70634 0
    endloop
  endfacet
  facet normal -0.694658 -0.71934 0
    outer loop
      vertex -4.31604 -4.16795 0
      vertex -4.01478 -4.45887 3
      vertex -4.31604 -4.16795 3
    endloop
  endfacet
  facet normal -0.694658 -0.71934 -0
    outer loop
      vertex -4.01478 -4.45887 3
      vertex -4.31604 -4.16795 0
      vertex -4.01478 -4.45887 0
    endloop
  endfacet
  facet normal -0.829037 -0.559193 0
    outer loop
      vertex -4.8541 -3.52671 0
      vertex -5.08829 -3.17951 3
      vertex -5.08829 -3.17951 0
    endloop
  endfacet
  facet normal -0.829037 -0.559193 0
    outer loop
      vertex -5.08829 -3.17951 3
      vertex -4.8541 -3.52671 0
      vertex -4.8541 -3.52671 3
    endloop
  endfacet
  facet normal -0.898793 -0.438373 0
    outer loop
      vertex -5.29768 -2.81683 0
      vertex -5.48127 -2.44042 3
      vertex -5.48127 -2.44042 0
    endloop
  endfacet
  facet normal -0.898793 -0.438373 0
    outer loop
      vertex -5.48127 -2.44042 3
      vertex -5.29768 -2.81683 0
      vertex -5.29768 -2.81683 3
    endloop
  endfacet
  facet normal -0.951056 -0.309017 0
    outer loop
      vertex -5.63815 -2.05212 0
      vertex -5.76757 -1.65382 3
      vertex -5.76757 -1.65382 0
    endloop
  endfacet
  facet normal -0.951056 -0.309017 0
    outer loop
      vertex -5.76757 -1.65382 3
      vertex -5.63815 -2.05212 0
      vertex -5.63815 -2.05212 3
    endloop
  endfacet
  facet normal -0.984808 -0.173647 0
    outer loop
      vertex -5.86889 -1.24747 0
      vertex -5.94161 -0.835038 3
      vertex -5.94161 -0.835038 0
    endloop
  endfacet
  facet normal -0.984808 -0.173647 0
    outer loop
      vertex -5.94161 -0.835038 3
      vertex -5.86889 -1.24747 0
      vertex -5.86889 -1.24747 3
    endloop
  endfacet
  facet normal -0.994522 -0.10453 0
    outer loop
      vertex -5.94161 -0.835038 0
      vertex -5.98538 -0.418538 3
      vertex -5.98538 -0.418538 0
    endloop
  endfacet
  facet normal -0.994522 -0.10453 0
    outer loop
      vertex -5.98538 -0.418538 3
      vertex -5.94161 -0.835038 0
      vertex -5.94161 -0.835038 3
    endloop
  endfacet
  facet normal 0.406736 -0.913546 0
    outer loop
      vertex 2.24764 -5.5631 0
      vertex 2.63023 -5.39276 3
      vertex 2.24764 -5.5631 3
    endloop
  endfacet
  facet normal 0.406736 -0.913546 0
    outer loop
      vertex 2.63023 -5.39276 3
      vertex 2.24764 -5.5631 0
      vertex 2.63023 -5.39276 0
    endloop
  endfacet
  facet normal 0.207912 -0.978147 0
    outer loop
      vertex 1.04189 -5.90885 0
      vertex 1.45153 -5.82177 3
      vertex 1.04189 -5.90885 3
    endloop
  endfacet
  facet normal 0.207912 -0.978147 0
    outer loop
      vertex 1.45153 -5.82177 3
      vertex 1.04189 -5.90885 0
      vertex 1.45153 -5.82177 0
    endloop
  endfacet
  facet normal 0.275636 -0.961262 0
    outer loop
      vertex 1.45153 -5.82177 0
      vertex 1.8541 -5.70634 3
      vertex 1.45153 -5.82177 3
    endloop
  endfacet
  facet normal 0.275636 -0.961262 0
    outer loop
      vertex 1.8541 -5.70634 3
      vertex 1.45153 -5.82177 0
      vertex 1.8541 -5.70634 0
    endloop
  endfacet
  facet normal 0.139173 -0.990268 0
    outer loop
      vertex 0.627171 -5.96713 0
      vertex 1.04189 -5.90885 3
      vertex 0.627171 -5.96713 3
    endloop
  endfacet
  facet normal 0.139173 -0.990268 0
    outer loop
      vertex 1.04189 -5.90885 3
      vertex 0.627171 -5.96713 0
      vertex 1.04189 -5.90885 0
    endloop
  endfacet
  facet normal 0.0697572 -0.997564 0
    outer loop
      vertex 0.209396 -5.99634 0
      vertex 0.627171 -5.96713 3
      vertex 0.209396 -5.99634 3
    endloop
  endfacet
  facet normal 0.0697572 -0.997564 0
    outer loop
      vertex 0.627171 -5.96713 3
      vertex 0.209396 -5.99634 0
      vertex 0.627171 -5.96713 0
    endloop
  endfacet
  facet normal 0.994522 -0.10453 0
    outer loop
      vertex 5.94161 -0.835038 3
      vertex 5.98538 -0.418538 0
      vertex 5.98538 -0.418538 3
    endloop
  endfacet
  facet normal 0.994522 -0.10453 0
    outer loop
      vertex 5.98538 -0.418538 0
      vertex 5.94161 -0.835038 3
      vertex 5.94161 -0.835038 0
    endloop
  endfacet
  facet normal 0.898793 -0.438373 0
    outer loop
      vertex 5.29768 -2.81683 3
      vertex 5.48127 -2.44042 0
      vertex 5.48127 -2.44042 3
    endloop
  endfacet
  facet normal 0.898793 -0.438373 0
    outer loop
      vertex 5.48127 -2.44042 0
      vertex 5.29768 -2.81683 3
      vertex 5.29768 -2.81683 0
    endloop
  endfacet
  facet normal 0.970296 -0.241922 0
    outer loop
      vertex 5.76757 -1.65382 3
      vertex 5.86889 -1.24747 0
      vertex 5.86889 -1.24747 3
    endloop
  endfacet
  facet normal 0.970296 -0.241922 0
    outer loop
      vertex 5.86889 -1.24747 0
      vertex 5.76757 -1.65382 3
      vertex 5.76757 -1.65382 0
    endloop
  endfacet
  facet normal 0.829037 -0.559193 0
    outer loop
      vertex 4.8541 -3.52671 3
      vertex 5.08829 -3.17951 0
      vertex 5.08829 -3.17951 3
    endloop
  endfacet
  facet normal 0.829037 -0.559193 0
    outer loop
      vertex 5.08829 -3.17951 0
      vertex 4.8541 -3.52671 3
      vertex 4.8541 -3.52671 0
    endloop
  endfacet
  facet normal 0.78801 -0.615663 0
    outer loop
      vertex 4.59627 -3.85672 3
      vertex 4.8541 -3.52671 0
      vertex 4.8541 -3.52671 3
    endloop
  endfacet
  facet normal 0.78801 -0.615663 0
    outer loop
      vertex 4.8541 -3.52671 0
      vertex 4.59627 -3.85672 3
      vertex 4.59627 -3.85672 0
    endloop
  endfacet
  facet normal 0.529919 -0.848048 0
    outer loop
      vertex 3 -5.19615 0
      vertex 3.35516 -4.97423 3
      vertex 3 -5.19615 3
    endloop
  endfacet
  facet normal 0.529919 -0.848048 0
    outer loop
      vertex 3.35516 -4.97423 3
      vertex 3 -5.19615 0
      vertex 3.35516 -4.97423 0
    endloop
  endfacet
  facet normal -0.139173 -0.990268 0
    outer loop
      vertex -1.04189 -5.90885 0
      vertex -0.627171 -5.96713 3
      vertex -1.04189 -5.90885 3
    endloop
  endfacet
  facet normal -0.139173 -0.990268 -0
    outer loop
      vertex -0.627171 -5.96713 3
      vertex -1.04189 -5.90885 0
      vertex -0.627171 -5.96713 0
    endloop
  endfacet
  facet normal -0.866026 -0.499999 0
    outer loop
      vertex -5.08829 -3.17951 0
      vertex -5.29768 -2.81683 3
      vertex -5.29768 -2.81683 0
    endloop
  endfacet
  facet normal -0.866026 -0.499999 0
    outer loop
      vertex -5.29768 -2.81683 3
      vertex -5.08829 -3.17951 0
      vertex -5.08829 -3.17951 3
    endloop
  endfacet
  facet normal 0.642788 -0.766044 0
    outer loop
      vertex 3.69397 -4.72806 0
      vertex 4.01478 -4.45887 3
      vertex 3.69397 -4.72806 3
    endloop
  endfacet
  facet normal 0.642788 -0.766044 0
    outer loop
      vertex 4.01478 -4.45887 3
      vertex 3.69397 -4.72806 0
      vertex 4.01478 -4.45887 0
    endloop
  endfacet
  facet normal 0.694658 -0.71934 0
    outer loop
      vertex 4.01478 -4.45887 0
      vertex 4.31604 -4.16795 3
      vertex 4.01478 -4.45887 3
    endloop
  endfacet
  facet normal 0.694658 -0.71934 0
    outer loop
      vertex 4.31604 -4.16795 3
      vertex 4.01478 -4.45887 0
      vertex 4.31604 -4.16795 0
    endloop
  endfacet
  facet normal -0.275636 -0.961262 0
    outer loop
      vertex -1.8541 -5.70634 0
      vertex -1.45153 -5.82177 3
      vertex -1.8541 -5.70634 3
    endloop
  endfacet
  facet normal -0.275636 -0.961262 -0
    outer loop
      vertex -1.45153 -5.82177 3
      vertex -1.8541 -5.70634 0
      vertex -1.45153 -5.82177 0
    endloop
  endfacet
  facet normal -0.0697572 -0.997564 0
    outer loop
      vertex -0.627171 -5.96713 0
      vertex -0.209396 -5.99634 3
      vertex -0.627171 -5.96713 3
    endloop
  endfacet
  facet normal -0.0697572 -0.997564 -0
    outer loop
      vertex -0.209396 -5.99634 3
      vertex -0.627171 -5.96713 0
      vertex -0.209396 -5.99634 0
    endloop
  endfacet
  facet normal -0.469472 -0.882947 0
    outer loop
      vertex -3 -5.19615 0
      vertex -2.63023 -5.39276 3
      vertex -3 -5.19615 3
    endloop
  endfacet
  facet normal -0.469472 -0.882947 -0
    outer loop
      vertex -2.63023 -5.39276 3
      vertex -3 -5.19615 0
      vertex -2.63023 -5.39276 0
    endloop
  endfacet
  facet normal -0.587786 -0.809017 0
    outer loop
      vertex -3.69397 -4.72806 0
      vertex -3.35516 -4.97423 3
      vertex -3.69397 -4.72806 3
    endloop
  endfacet
  facet normal -0.587786 -0.809017 -0
    outer loop
      vertex -3.35516 -4.97423 3
      vertex -3.69397 -4.72806 0
      vertex -3.35516 -4.97423 0
    endloop
  endfacet
  facet normal -0.207912 -0.978147 0
    outer loop
      vertex -1.45153 -5.82177 0
      vertex -1.04189 -5.90885 3
      vertex -1.45153 -5.82177 3
    endloop
  endfacet
  facet normal -0.207912 -0.978147 -0
    outer loop
      vertex -1.04189 -5.90885 3
      vertex -1.45153 -5.82177 0
      vertex -1.04189 -5.90885 0
    endloop
  endfacet
  facet normal -0.529919 -0.848048 0
    outer loop
      vertex -3.35516 -4.97423 0
      vertex -3 -5.19615 3
      vertex -3.35516 -4.97423 3
    endloop
  endfacet
  facet normal -0.529919 -0.848048 -0
    outer loop
      vertex -3 -5.19615 3
      vertex -3.35516 -4.97423 0
      vertex -3 -5.19615 0
    endloop
  endfacet
  facet normal -0.642788 -0.766044 0
    outer loop
      vertex -4.01478 -4.45887 0
      vertex -3.69397 -4.72806 3
      vertex -4.01478 -4.45887 3
    endloop
  endfacet
  facet normal -0.642788 -0.766044 -0
    outer loop
      vertex -3.69397 -4.72806 3
      vertex -4.01478 -4.45887 0
      vertex -3.69397 -4.72806 0
    endloop
  endfacet
  facet normal -0.866027 -0.499997 0
    outer loop
      vertex 0.639482 0.284715 0
      vertex 0.566312 0.411449 1
      vertex 0.566312 0.411449 0
    endloop
  endfacet
  facet normal -0.866027 -0.499997 0
    outer loop
      vertex 0.566312 0.411449 1
      vertex 0.639482 0.284715 0
      vertex 0.639482 0.284715 1
    endloop
  endfacet
  facet normal -0.743144 -0.669132 0
    outer loop
      vertex 0.566312 0.411449 0
      vertex 0.468391 0.520201 1
      vertex 0.468391 0.520201 0
    endloop
  endfacet
  facet normal -0.743144 -0.669132 0
    outer loop
      vertex 0.468391 0.520201 1
      vertex 0.566312 0.411449 0
      vertex 0.566312 0.411449 1
    endloop
  endfacet
  facet normal -0.207914 -0.978147 0
    outer loop
      vertex 0.0731697 0.696165 0
      vertex 0.216311 0.665739 1
      vertex 0.0731697 0.696165 1
    endloop
  endfacet
  facet normal -0.207914 -0.978147 -0
    outer loop
      vertex 0.216311 0.665739 1
      vertex 0.0731697 0.696165 0
      vertex 0.216311 0.665739 0
    endloop
  endfacet
  facet normal -0.406736 -0.913546 0
    outer loop
      vertex 0.216311 0.665739 0
      vertex 0.349999 0.606217 1
      vertex 0.216311 0.665739 1
    endloop
  endfacet
  facet normal -0.406736 -0.913546 -0
    outer loop
      vertex 0.349999 0.606217 1
      vertex 0.216311 0.665739 0
      vertex 0.349999 0.606217 0
    endloop
  endfacet
  facet normal 0.406736 -0.913546 0
    outer loop
      vertex -0.349999 0.606217 0
      vertex -0.216311 0.665739 1
      vertex -0.349999 0.606217 1
    endloop
  endfacet
  facet normal 0.406736 -0.913546 0
    outer loop
      vertex -0.216311 0.665739 1
      vertex -0.349999 0.606217 0
      vertex -0.216311 0.665739 0
    endloop
  endfacet
  facet normal 0.866027 -0.499997 0
    outer loop
      vertex -0.639482 0.284715 1
      vertex -0.566312 0.411449 0
      vertex -0.566312 0.411449 1
    endloop
  endfacet
  facet normal 0.866027 -0.499997 0
    outer loop
      vertex -0.566312 0.411449 0
      vertex -0.639482 0.284715 1
      vertex -0.639482 0.284715 0
    endloop
  endfacet
  facet normal -0.994522 0.104531 0
    outer loop
      vertex 0.684703 -0.145537 0
      vertex 0.7 0 1
      vertex 0.7 0 0
    endloop
  endfacet
  facet normal -0.994522 0.104531 0
    outer loop
      vertex 0.7 0 1
      vertex 0.684703 -0.145537 0
      vertex 0.684703 -0.145537 1
    endloop
  endfacet
  facet normal -0.207914 0.978147 0
    outer loop
      vertex 0.216311 -0.665739 0
      vertex 0.0731697 -0.696165 1
      vertex 0.216311 -0.665739 1
    endloop
  endfacet
  facet normal -0.207914 0.978147 0
    outer loop
      vertex 0.0731697 -0.696165 1
      vertex 0.216311 -0.665739 0
      vertex 0.0731697 -0.696165 0
    endloop
  endfacet
  facet normal 0 -1 0
    outer loop
      vertex -0.0731697 0.696165 0
      vertex 0.0731697 0.696165 1
      vertex -0.0731697 0.696165 1
    endloop
  endfacet
  facet normal 0 -1 -0
    outer loop
      vertex 0.0731697 0.696165 1
      vertex -0.0731697 0.696165 0
      vertex 0.0731697 0.696165 0
    endloop
  endfacet
  facet normal -0.587785 -0.809018 0
    outer loop
      vertex 0.349999 0.606217 0
      vertex 0.468391 0.520201 1
      vertex 0.349999 0.606217 1
    endloop
  endfacet
  facet normal -0.587785 -0.809018 -0
    outer loop
      vertex 0.468391 0.520201 1
      vertex 0.349999 0.606217 0
      vertex 0.468391 0.520201 0
    endloop
  endfacet
  facet normal 0.994522 -0.104531 0
    outer loop
      vertex -0.7 0 1
      vertex -0.684703 0.145537 0
      vertex -0.684703 0.145537 1
    endloop
  endfacet
  facet normal 0.994522 -0.104531 0
    outer loop
      vertex -0.684703 0.145537 0
      vertex -0.7 0 1
      vertex -0.7 0 0
    endloop
  endfacet
  facet normal 0.587785 -0.809018 0
    outer loop
      vertex -0.468391 0.520201 0
      vertex -0.349999 0.606217 1
      vertex -0.468391 0.520201 1
    endloop
  endfacet
  facet normal 0.587785 -0.809018 0
    outer loop
      vertex -0.349999 0.606217 1
      vertex -0.468391 0.520201 0
      vertex -0.349999 0.606217 0
    endloop
  endfacet
  facet normal 0.207914 -0.978147 0
    outer loop
      vertex -0.216311 0.665739 0
      vertex -0.0731697 0.696165 1
      vertex -0.216311 0.665739 1
    endloop
  endfacet
  facet normal 0.207914 -0.978147 0
    outer loop
      vertex -0.0731697 0.696165 1
      vertex -0.216311 0.665739 0
      vertex -0.0731697 0.696165 0
    endloop
  endfacet
  facet normal 0.743144 -0.669132 0
    outer loop
      vertex -0.566312 0.411449 1
      vertex -0.468391 0.520201 0
      vertex -0.468391 0.520201 1
    endloop
  endfacet
  facet normal 0.743144 -0.669132 0
    outer loop
      vertex -0.468391 0.520201 0
      vertex -0.566312 0.411449 1
      vertex -0.566312 0.411449 0
    endloop
  endfacet
  facet normal -0.994522 -0.104531 0
    outer loop
      vertex 0.7 0 0
      vertex 0.684703 0.145537 1
      vertex 0.684703 0.145537 0
    endloop
  endfacet
  facet normal -0.994522 -0.104531 0
    outer loop
      vertex 0.684703 0.145537 1
      vertex 0.7 0 0
      vertex 0.7 0 1
    endloop
  endfacet
  facet normal 0.207914 0.978147 -0
    outer loop
      vertex -0.0731697 -0.696165 0
      vertex -0.216311 -0.665739 1
      vertex -0.0731697 -0.696165 1
    endloop
  endfacet
  facet normal 0.207914 0.978147 0
    outer loop
      vertex -0.216311 -0.665739 1
      vertex -0.0731697 -0.696165 0
      vertex -0.216311 -0.665739 0
    endloop
  endfacet
  facet normal -0.587785 0.809018 0
    outer loop
      vertex 0.468391 -0.520201 0
      vertex 0.349999 -0.606217 1
      vertex 0.468391 -0.520201 1
    endloop
  endfacet
  facet normal -0.587785 0.809018 0
    outer loop
      vertex 0.349999 -0.606217 1
      vertex 0.468391 -0.520201 0
      vertex 0.349999 -0.606217 0
    endloop
  endfacet
  facet normal -0.951057 -0.309016 0
    outer loop
      vertex 0.684703 0.145537 0
      vertex 0.639482 0.284715 1
      vertex 0.639482 0.284715 0
    endloop
  endfacet
  facet normal -0.951057 -0.309016 0
    outer loop
      vertex 0.639482 0.284715 1
      vertex 0.684703 0.145537 0
      vertex 0.684703 0.145537 1
    endloop
  endfacet
  facet normal 0.951057 -0.309016 0
    outer loop
      vertex -0.684703 0.145537 1
      vertex -0.639482 0.284715 0
      vertex -0.639482 0.284715 1
    endloop
  endfacet
  facet normal 0.951057 -0.309016 0
    outer loop
      vertex -0.639482 0.284715 0
      vertex -0.684703 0.145537 1
      vertex -0.684703 0.145537 0
    endloop
  endfacet
  facet normal -0.951057 0.309016 0
    outer loop
      vertex 0.639482 -0.284715 0
      vertex 0.684703 -0.145537 1
      vertex 0.684703 -0.145537 0
    endloop
  endfacet
  facet normal -0.951057 0.309016 0
    outer loop
      vertex 0.684703 -0.145537 1
      vertex 0.639482 -0.284715 0
      vertex 0.639482 -0.284715 1
    endloop
  endfacet
  facet normal -0.866027 0.499997 0
    outer loop
      vertex 0.566312 -0.411449 0
      vertex 0.639482 -0.284715 1
      vertex 0.639482 -0.284715 0
    endloop
  endfacet
  facet normal -0.866027 0.499997 0
    outer loop
      vertex 0.639482 -0.284715 1
      vertex 0.566312 -0.411449 0
      vertex 0.566312 -0.411449 1
    endloop
  endfacet
  facet normal 0.406736 0.913546 -0
    outer loop
      vertex -0.216311 -0.665739 0
      vertex -0.349999 -0.606217 1
      vertex -0.216311 -0.665739 1
    endloop
  endfacet
  facet normal 0.406736 0.913546 0
    outer loop
      vertex -0.349999 -0.606217 1
      vertex -0.216311 -0.665739 0
      vertex -0.349999 -0.606217 0
    endloop
  endfacet
  facet normal 0.994522 0.104531 0
    outer loop
      vertex -0.684703 -0.145537 1
      vertex -0.7 0 0
      vertex -0.7 0 1
    endloop
  endfacet
  facet normal 0.994522 0.104531 0
    outer loop
      vertex -0.7 0 0
      vertex -0.684703 -0.145537 1
      vertex -0.684703 -0.145537 0
    endloop
  endfacet
  facet normal 0.866027 0.499997 0
    outer loop
      vertex -0.566312 -0.411449 1
      vertex -0.639482 -0.284715 0
      vertex -0.639482 -0.284715 1
    endloop
  endfacet
  facet normal 0.866027 0.499997 0
    outer loop
      vertex -0.639482 -0.284715 0
      vertex -0.566312 -0.411449 1
      vertex -0.566312 -0.411449 0
    endloop
  endfacet
  facet normal -0.743144 0.669132 0
    outer loop
      vertex 0.468391 -0.520201 0
      vertex 0.566312 -0.411449 1
      vertex 0.566312 -0.411449 0
    endloop
  endfacet
  facet normal -0.743144 0.669132 0
    outer loop
      vertex 0.566312 -0.411449 1
      vertex 0.468391 -0.520201 0
      vertex 0.468391 -0.520201 1
    endloop
  endfacet
  facet normal 0 1 -0
    outer loop
      vertex 0.0731697 -0.696165 0
      vertex -0.0731697 -0.696165 1
      vertex 0.0731697 -0.696165 1
    endloop
  endfacet
  facet normal 0 1 0
    outer loop
      vertex -0.0731697 -0.696165 1
      vertex 0.0731697 -0.696165 0
      vertex -0.0731697 -0.696165 0
    endloop
  endfacet
  facet normal 0.587785 0.809018 -0
    outer loop
      vertex -0.349999 -0.606217 0
      vertex -0.468391 -0.520201 1
      vertex -0.349999 -0.606217 1
    endloop
  endfacet
  facet normal 0.587785 0.809018 0
    outer loop
      vertex -0.468391 -0.520201 1
      vertex -0.349999 -0.606217 0
      vertex -0.468391 -0.520201 0
    endloop
  endfacet
  facet normal 0.951057 0.309016 0
    outer loop
      vertex -0.639482 -0.284715 1
      vertex -0.684703 -0.145537 0
      vertex -0.684703 -0.145537 1
    endloop
  endfacet
  facet normal 0.951057 0.309016 0
    outer loop
      vertex -0.684703 -0.145537 0
      vertex -0.639482 -0.284715 1
      vertex -0.639482 -0.284715 0
    endloop
  endfacet
  facet normal 0.743144 0.669132 0
    outer loop
      vertex -0.468391 -0.520201 1
      vertex -0.566312 -0.411449 0
      vertex -0.566312 -0.411449 1
    endloop
  endfacet
  facet normal 0.743144 0.669132 0
    outer loop
      vertex -0.566312 -0.411449 0
      vertex -0.468391 -0.520201 1
      vertex -0.468391 -0.520201 0
    endloop
  endfacet
  facet normal -0.406736 0.913546 0
    outer loop
      vertex 0.349999 -0.606217 0
      vertex 0.216311 -0.665739 1
      vertex 0.349999 -0.606217 1
    endloop
  endfacet
  facet normal -0.406736 0.913546 0
    outer loop
      vertex 0.216311 -0.665739 1
      vertex 0.349999 -0.606217 0
      vertex 0.216311 -0.665739 0
    endloop
  endfacet
endsolid OpenSCAD_Model
