M48
INCH,TZ
T1C0.016
T2C0.032
T3C0.039
T4C0.040
%
G90
G05
T1
X63100Y-37000
X63100Y-39000
X63113Y-36000
X63113Y-38000
X63113Y-40000
X63200Y-32000
X63200Y-35000
X63800Y-41408
X64300Y-42400
X64500Y-31400
X64687Y-39000
X64700Y-35000
X64700Y-40100
X65000Y-43300
X65200Y-34500
X65400Y-34200
X66300Y-32013
X67100Y-33800
X67100Y-34500
X67600Y-31400
X67600Y-41800
X69487Y-36100
X69500Y-37100
X69800Y-40613
X71200Y-42700
T2
X64800Y-32900
X67900Y-32900
T3
X64609Y-44200
X65791Y-44200
T4
X64300Y-30600
X65300Y-30600
X67400Y-30600
X67800Y-43800
X68400Y-30600
X68800Y-43800
X71100Y-34100
X71100Y-35100
X71100Y-36100
X71100Y-37100
X71100Y-38100
X71100Y-39100
T0
M30
