G04 #@! TF.FileFunction,Soldermask,Bot*
%FSLAX46Y46*%
G04 Gerber Fmt 4.6, Leading zero omitted, Abs format (unit mm)*
G04 Created by KiCad (PCBNEW 4.0.2-4+6225~38~ubuntu14.04.1-stable) date Mon 25 Apr 2016 04:48:21 PM EDT*
%MOMM*%
G01*
G04 APERTURE LIST*
%ADD10C,0.100000*%
%ADD11R,2.400000X2.900000*%
%ADD12R,1.650000X1.900000*%
%ADD13R,2.432000X2.127200*%
%ADD14O,2.432000X2.127200*%
%ADD15R,2.432000X2.432000*%
%ADD16O,2.432000X2.432000*%
%ADD17C,2.398980*%
%ADD18R,2.400000X2.100000*%
%ADD19R,2.100000X2.400000*%
%ADD20R,1.050000X1.460000*%
%ADD21R,0.452400X1.752400*%
G04 APERTURE END LIST*
D10*
D11*
X177070000Y-103124000D03*
X181070000Y-103124000D03*
D12*
X162052000Y-105176000D03*
X162052000Y-107676000D03*
X164592000Y-105176000D03*
X164592000Y-107676000D03*
D13*
X180594000Y-99314000D03*
D14*
X180594000Y-96774000D03*
X180594000Y-94234000D03*
X180594000Y-91694000D03*
X180594000Y-89154000D03*
X180594000Y-86614000D03*
D15*
X172212000Y-111252000D03*
D16*
X174752000Y-111252000D03*
D15*
X165862000Y-77724000D03*
D16*
X163322000Y-77724000D03*
D17*
X172466000Y-83566000D03*
X164592000Y-83566000D03*
D15*
X173736000Y-77724000D03*
D16*
X171196000Y-77724000D03*
D18*
X181070000Y-106680000D03*
X177070000Y-106680000D03*
D19*
X160528000Y-81312000D03*
X160528000Y-85312000D03*
X168402000Y-81312000D03*
X168402000Y-85312000D03*
D18*
X164306000Y-88900000D03*
X160306000Y-88900000D03*
X164306000Y-93980000D03*
X160306000Y-93980000D03*
X164306000Y-96520000D03*
X160306000Y-96520000D03*
X164306000Y-91440000D03*
X160306000Y-91440000D03*
X172498000Y-94234000D03*
X176498000Y-94234000D03*
X164306000Y-101600000D03*
X160306000Y-101600000D03*
X172498000Y-91694000D03*
X176498000Y-91694000D03*
X164306000Y-99060000D03*
X160306000Y-99060000D03*
D20*
X167706000Y-105326000D03*
X168656000Y-105326000D03*
X169606000Y-105326000D03*
X169606000Y-107526000D03*
X167706000Y-107526000D03*
D21*
X163592000Y-81366000D03*
X164092000Y-81366000D03*
X164592000Y-81366000D03*
X165092000Y-81366000D03*
X165592000Y-81366000D03*
X165592000Y-85766000D03*
X165092000Y-85766000D03*
X164592000Y-85766000D03*
X164092000Y-85766000D03*
X163592000Y-85766000D03*
X171466000Y-81366000D03*
X171966000Y-81366000D03*
X172466000Y-81366000D03*
X172966000Y-81366000D03*
X173466000Y-81366000D03*
X173466000Y-85766000D03*
X172966000Y-85766000D03*
X172466000Y-85766000D03*
X171966000Y-85766000D03*
X171466000Y-85766000D03*
M02*
